<?xml version="1.0" encoding="utf-8"?>
<!-- Generator: Adobe Illustrator 17.0.0, SVG Export Plug-In . SVG Version: 6.00 Build 0)  -->
<!DOCTYPE svg PUBLIC "-//W3C//DTD SVG 1.1//EN" "http://www.w3.org/Graphics/SVG/1.1/DTD/svg11.dtd" [
	<!ENTITY ns_flows "http://ns.adobe.com/Flows/1.0/">
	<!ENTITY ns_extend "http://ns.adobe.com/Extensibility/1.0/">
	<!ENTITY ns_ai "http://ns.adobe.com/AdobeIllustrator/10.0/">
	<!ENTITY ns_graphs "http://ns.adobe.com/Graphs/1.0/">
]>
<svg version="1.1" id="Layer_1" xmlns:x="&ns_extend;" xmlns:i="&ns_ai;" xmlns:graph="&ns_graphs;"
	 xmlns="http://www.w3.org/2000/svg" xmlns:xlink="http://www.w3.org/1999/xlink" xmlns:a="http://ns.adobe.com/AdobeSVGViewerExtensions/3.0/"
	 x="0px" y="0px" width="219.6px" height="221.1px" viewBox="0 0 219.6 221.1" enable-background="new 0 0 219.6 221.1"
	 xml:space="preserve">
<g>
	<path fill="#3960A3" d="M109.2,221.1C47.9,220.8-0.3,171.6,0,109.7C0.3,48.9,49.8-0.4,110.2,0C171.1,0.4,220,50,219.6,110.6
		C219.1,172.5,170.4,221.3,109.2,221.1z"/>
	<g>
		<path fill="#FFFFFF" d="M179.8,140.9c3.6,0,6.9,0,10.3,0c0,3.6,0.3,7.1-0.1,10.5c-0.7,5.4-5,8.9-10.5,8.9c-13.3,0-26.6,0-39.9,0
			c-31.1,0-62.2,0-93.2,0c-6.8,0-11.2-4.4-11.2-11.2c0-2.7,0-5.3,0-8.2c3.9,0,7.7,0,11.7,0c0-0.9,0-1.6,0-2.3c0-24.7,0-49.4,0-74.2
			c0-6.6,4.5-11,11.1-11c36.8,0,73.7,0,110.5,0c5.4,0,9.3,2.6,10.8,7.2c0.4,1.3,0.6,2.7,0.6,4c0,24.7,0,49.4,0,74.2
			C179.8,139.5,179.8,140.1,179.8,140.9z M174.7,140.9c0-0.8,0-1.3,0-1.9c0-9.2,0-18.4,0-27.6c0-15.7,0-31.4,0-47.1
			c0-2.3-0.8-4.2-3-5.2c-0.9-0.4-2.1-0.6-3.1-0.6c-37,0-74,0-111,0c-3.4,0-5.6,2.2-5.6,5.6c0,25,0,50,0,75c0,0.5,0.1,1,0.1,1.8
			c13.5,0,26.9,0,40.3,0c0,0.6,0,1,0,1.3c0.1,2.9,2.3,5.1,5.1,5.1c9.7,0,19.3,0,29,0c2.8,0,4.9-2.2,5.1-4.9c0-0.5,0.1-0.9,0.1-1.6
			C146,140.9,160.2,140.9,174.7,140.9z"/>
		<path fill="#FFFFFF" d="M127.8,128.8c-0.1-0.3-0.1-0.3-0.1-0.4c-0.3-5.2-0.3-5.2,4.3-7.5c3.1-1.6,6.2-3.2,9.2-4.8
			c0.5-0.2,0.9-0.5,1.6-0.9c-1-0.5-1.7-0.9-2.5-1.3c-3.8-2-7.6-4-11.4-5.9c-1-0.5-1.4-1.1-1.3-2.2c0.1-1.3,0-2.6,0-4.2
			c0.6,0.3,1.1,0.5,1.5,0.7c6.4,3.3,12.7,6.6,19.1,9.9c1.1,0.5,1.6,1.1,1.4,2.3c-0.1,0.7,0.1,1.4,0,2.1c-0.1,0.5-0.3,1.1-0.7,1.3
			C142,121.4,135,125,127.8,128.8z"/>
		<path fill="#FFFFFF" d="M97.5,101.4c0.5,5.5,0.5,5.5-4.1,7.9c-3.1,1.6-6.2,3.3-9.4,4.9c-0.5,0.2-0.9,0.5-1.6,0.9
			c0.8,0.4,1.3,0.7,1.8,1c4.1,2.1,8.2,4.3,12.3,6.4c0.8,0.4,1.1,0.8,1.1,1.7c-0.1,1.4,0,2.8,0,4.5c-0.7-0.3-1.2-0.6-1.6-0.8
			c-5.9-3.3-11.9-6.6-17.8-9.8c-1-0.5-1.4-1.2-1.3-2.3c0.1-0.8-0.1-1.5,0-2.3c0.1-0.4,0.3-1,0.6-1.1
			C84.1,108.8,90.7,105.2,97.5,101.4z"/>
		<path fill="#FFFFFF" d="M121.3,96.5c-0.4,1.3-0.8,2.5-1.2,3.7c-3.7,11.3-7.5,22.7-11.2,34c-0.3,1.1-0.8,1.5-2,1.4
			c-1-0.1-2,0-3.3,0c0.6-1.9,1.2-3.7,1.8-5.4c3.5-10.6,7-21.1,10.4-31.7c0.5-1.5,1.1-2.1,2.7-1.9C119.4,96.6,120.3,96.5,121.3,96.5z
			"/>
		<path fill="#FFFFFF" d="M115.4,78c1.5,0.4,3.2-1,4.2,1.1c4-2.1,5.1-2,7.7,0.5c1.2-0.6,2.3-1.4,3.5-1.8c2.8-0.9,5.1,0.7,5.3,3.6
			c0.1,3,0,6.1,0,9.2c-1.3,0-2.5,0-3.9,0c0-2.5,0-4.9,0-7.3c0-2.2-1.4-3.1-3.3-2.2c-0.5,0.2-1.1,1.1-1.1,1.7c-0.1,2.1-0.1,4.2,0,6.4
			c0.1,1.3-0.4,1.8-1.7,1.6c-0.7-0.1-1.4,0-2.3,0c0-2.6,0-5,0-7.4c0-2.2-1.4-3.1-3.3-2.2c-0.5,0.2-1,1-1.1,1.5
			c-0.1,2.2-0.1,4.3,0,6.5c0,1.2-0.3,1.7-1.6,1.6c-0.8-0.1-1.6,0-2.5,0c0-4,0-7.7,0-11.5C115.3,79,115.4,78.6,115.4,78z"/>
		<path fill="#FFFFFF" d="M86.7,90.8c0-6,0-11.8,0-17.6c1.3,0,2.5,0,3.9,0c0,2,0,3.9,0,6.2c0.8-0.4,1.3-0.7,1.8-1
			c3.7-1.9,6.9-0.1,7,4c0.1,2.4,0,4.8,0,7.2c0,0.9-0.3,1.3-1.2,1.3c-0.9,0-1.7,0-2.8,0c0-2.5,0-4.9,0-7.3c-0.1-2.4-1.3-3.2-3.6-2.4
			c-0.9,0.3-1.3,0.8-1.2,1.8c0,2.1-0.1,4.1,0,6.2c0.1,1.3-0.4,1.9-1.7,1.7C88.2,90.7,87.5,90.8,86.7,90.8z"/>
		<path fill="#FFFFFF" d="M111.2,88.1c0.5,2.6,0.4,2.8-2,2.8c-0.6,0-1.2,0-1.8,0c-2.6-0.2-3.7-1.3-3.8-3.9c-0.1-2,0-4,0-6.1
			c-0.5-0.1-1-0.2-1.5-0.3c0-0.8,0-1.6,0-2.4c0.5-0.1,0.9-0.2,1.5-0.3c0-1.1,0-2.2,0-3.4c1.3,0,2.5,0,4,0c0.1,1,0.1,2.1,0.2,3.4
			c1.2,0.1,2.3,0.1,3.6,0.2c0,0.9,0,1.7,0,2.6c-1.2,0.1-2.3,0.1-3.6,0.2c0,2.1-0.1,4.1,0,6.1C107.8,88.3,108.8,88.6,111.2,88.1z"/>
		<path fill="#FFFFFF" d="M143.2,91.1c-1.3,0-2.4,0-3.6,0c0-6,0-11.9,0-18c1.2,0,2.4,0,3.6,0C143.2,79.2,143.2,85.1,143.2,91.1z"/>
	</g>
</g>
</svg>
