<?xml version="1.0" encoding="utf-8"?>
<!-- Generator: Adobe Illustrator 17.0.0, SVG Export Plug-In . SVG Version: 6.00 Build 0)  -->
<!DOCTYPE svg PUBLIC "-//W3C//DTD SVG 1.1//EN" "http://www.w3.org/Graphics/SVG/1.1/DTD/svg11.dtd">
<svg version="1.1" id="Layer_1" xmlns="http://www.w3.org/2000/svg" xmlns:xlink="http://www.w3.org/1999/xlink" x="0px" y="0px"
	 width="278.986px" height="290.2px" viewBox="0 0 278.986 290.2" enable-background="new 0 0 278.986 290.2" xml:space="preserve">
<g>
	<path fill="#FEFEFE" d="M131.54,275.914c-40.495,0-80.99-0.041-121.485,0.084c-2.983,0.009-3.591-0.601-3.583-3.584
		c0.118-47.494,0.083-94.988,0.083-142.482c0.365-0.331,0.787-0.439,1.268-0.329c2.059,1.085,4.105,2.203,6.413,2.714
		c3.498,1.495,7.664,1.695,10.123,5.213c0.916,3.584,0.917,7.169,0.035,10.756c-2.453,3.561-6.778,3.751-10.158,5.642
		c-5.203,2.088-2.684,6.127-2.406,9.597c0.028,1.829,0.492,3.582,0.811,5.365c0.554,3.093,2.297,4.612,5.418,4.615
		c0.659,0.001,1.318,0.03,1.978,0.043c9.275,0.185,9.275,0.185,12.247,8.705c0.37,2.9,3.096,5.489,1.186,8.702
		c-1.425,1.966-3.423,3.29-5.318,4.729c-3.317,2.544-5.089,5.431-2.102,9.386c0.38,0.535,0.741,1.082,1.089,1.637
		c0.655,1.131,1.42,2.189,2.179,3.252c1.845,2.584,3.081,6.175,7.484,4.436c0.417-0.175,0.843-0.314,1.271-0.451
		c2.89-0.477,5.153-3.016,8.332-2.554c1.348,0.533,2.182,1.617,2.967,2.755c1.43,2.191,2.79,4.438,4.746,6.234
		c0.805,0.813,1.632,1.604,2.331,2.517c1.467,2.066,0.947,4.08-0.148,6.082c-0.846,1.379-1.714,2.749-2.582,4.115
		c-1.979,3.111-1.734,5.776,1.25,8.064c1.836,1.931,3.685,3.849,5.663,5.639c0.355,0.273,0.696,0.559,1.048,0.833
		c2.39,1.687,4.426,0.529,6.384-0.839c2.038-1.423,4-2.953,5.949-4.5c0.559-0.457,1.167-0.828,1.856-1.059
		c3.919-0.327,6.651,2.379,9.869,3.853c1.917,1.333,4.601,1.794,5.265,4.572c0.037,1.182-0.201,2.34-0.337,3.506
		c-0.496,3.257-1.763,6.445-0.85,9.816c2,2.357,4.986,2.337,7.618,3.159c1.569,0.505,3.207,0.879,4.671,1.598
		c3.424,1.683,5.258,0.372,6.195-2.973c2.365-3.478,3.667-8.163,9.163-8.099c0.794-0.011,1.578,0.073,2.357,0.216
		c2.406,0.949,5.399,0.154,7.36,2.445c1.634,2.7,1.689,5.839,2.434,8.786c-0.036,2.501,1.929,4.249,2.478,6.532
		C132.065,275.134,131.872,275.554,131.54,275.914z"/>
	<path fill="#FEFEFE" d="M149.538,9.947c39.754,0,79.509,0.045,119.263-0.085c3.172-0.01,3.805,0.783,3.797,3.849
		c-0.109,47.406-0.076,94.812-0.076,142.218c-4.62-1.11-8.759-3.487-13.212-5.049c-2.037-0.714-2.972-2.573-3.016-4.7
		c-0.068-3.268-0.557-6.568,0.492-9.781c2.859-3.58,7.914-3.303,11.096-6.314c1.452-1.166,1.013-2.74,0.736-4.152
		c-0.854-4.367-0.823-8.886-2.29-13.132c-2.123-2.134-4.809-1.513-7.343-1.463c-2.255,0.044-4.532,0.448-6.552-0.996
		c-2.35-3.296-2.678-7.427-4.525-10.933c-0.429-1.138-0.786-2.298-1.008-3.497c-0.246-2.319,1.647-3.256,2.95-4.579
		c0.584-0.572,1.202-1.107,1.788-1.678c5.055-4.923,5.063-5.284,0.218-10.638c-1.206-1.56-2.706-2.989-3.283-4.895
		c-1.027-3.394-3.271-3.465-5.733-2.083c-5.81,3.261-10.319,1.901-13.933-3.436c-1.976-3.486-6.44-5.524-6.067-10.381
		c0.256-0.796,0.735-1.478,1.162-2.19c5.295-8.843,4.457-7.386-2.12-13.22c-7.863-8.598-6.161-6.847-15.146-0.205
		c-3.612,3.078-6.803,0.922-10.038-0.795c-2.724-2.074-6.811-2.768-7.277-7.144c-0.001-2.744,1.041-5.385,0.795-8.151
		c0.95-6.206-4.696-6.136-7.952-8.33c-1.216-0.622-2.51-1.053-3.784-1.534c-2.304-1.404-4.049-0.667-5.496,1.382
		c-1.154,1.634-1.872,3.485-2.711,5.284c-3.18,5.925-4.056,6.359-10.383,5.161c-2.242-0.425-4.499-0.793-6.605-1.735
		c-3.501-3.53-2.229-8.418-3.575-12.563c-0.265-0.956-0.501-1.922-0.643-2.907C149.049,10.771,149.208,10.328,149.538,9.947z"/>
	<path fill="#FEFEFE" d="M272.522,162.928c0,36.495-0.045,72.991,0.084,109.486c0.011,2.983-0.601,3.593-3.584,3.584
		c-39.828-0.125-79.656-0.084-119.485-0.084c-0.326-0.387-0.48-0.837-0.493-1.34c0.304-2.669,1.297-5.22,1.349-7.937
		c0.297-1.785,0.706-3.545,1.066-5.32c0.832-2.889,3.069-3.638,5.715-3.766c3.646-0.313,7.187-1.617,10.915-1.201
		c2.163,1.115,2.934,3.35,4.186,5.199c3.022,6.627,6.871,6.252,11.644,1.678c3.713-3.557,6.603-7.835,6.88-13.309
		c-0.067-0.728,0.033-1.425,0.375-2.079c1.503-1.577,3.572-2.341,5.254-3.664c4.229-1.52,7.012-6.083,12.112-5.782
		c2.935,4.348,7.602,2.467,11.03,1.985c2.754-0.388,4.81-4.233,7.837-5.86c1.319-0.709,0.175-2.734-0.045-4.154
		c-0.366-2.318-1.728-4.263-2.43-6.458c-0.339-1.88,0.737-3.162,1.858-4.427c2.459-2.432,4.333-5.328,6.35-8.113
		c1.326-1.566,2.873-2.621,5.062-2.187c0.928,0.222,1.794,0.617,2.67,0.978c0.751,0.303,1.506,0.601,2.273,0.87
		c7.31,2.568,8.231,2.146,11.276-5.161c0.699-1.837,1.572-3.6,2.607-5.26c1.183-1.898,0.895-3.364-0.965-4.555
		c-0.715-0.522-1.394-1.084-1.958-1.77c-1.139-1.851-2.624-3.411-4.197-4.899c-0.939-1.019-1.882-2.036-2.051-3.507
		c-0.011-0.482,0.061-0.951,0.19-1.415c0.799-1.782,1.235-3.659,1.474-5.594c0.911-3.897,3.569-5.351,7.343-5.296
		c1.328,0.02,2.659-0.013,3.988-0.023c7.125-0.056,7.397-0.283,8.729-7.257C270.262,164.907,270.239,162.903,272.522,162.928z"/>
	<path fill="#FEFEFE" d="M6.556,124.933c0-37.162,0.044-74.324-0.084-111.486c-0.01-2.983,0.601-3.593,3.584-3.584
		C50.217,9.988,90.378,9.947,130.54,9.947c0.365,0.378,0.552,0.831,0.565,1.358c-0.095,1.044-0.527,1.976-0.951,2.913
		c-2.701,12.681,0.459,12.46-15.306,14.915c-1.3,0.112-2.585,0.062-3.812-0.444c-2.596-1.779-3.107-4.979-4.935-7.293
		c-0.811-1.027-1.22-2.704-2.505-2.958c-4.859-0.962-8.097,3.005-12.221,4.362c-2.106,0.693-2.588,2.36-1.933,4.401
		c0.185,0.727,0.297,1.461,0.354,2.207c0.867,5.579-1.006,9.687-6.38,11.915c-0.554,0.353-1.232,0.543-1.726,0.954
		c-5.726,4.758-11.249,5.641-16.702-0.504c-1.367-1.54-3.251-1.332-5.009-0.282c-2.987,1.784-5.701,3.956-8.542,5.947
		c-1.822,1.276-1.909,2.909-0.95,4.783c1.355,2.647,2.774,5.265,3.948,8.003c1.37,2.987-0.995,4.754-2.241,6.893
		c-0.957,1.3-2.147,2.395-3.184,3.627c-2.192,1.876-2.587,5.738-6.403,5.83c-4.344-0.835-8.03-3.999-12.717-3.584
		c-2.213,1.044-2.571,3.379-3.634,5.217c-1.299,2.32-2.292,4.77-3.227,7.255c-0.743,1.975-0.447,3.552,1.302,4.794
		c3.118,2.94,7.729,4.712,7.853,10.004c-1.408,3.548-1.381,7.77-4.835,10.366c-2.66,1.027-5.458,0.738-8.177,0.593
		c-3.46-0.184-6.037,0.749-7.324,4.172c-1.26,1.743-1.683,3.804-2.341,5.797C9.007,122.705,9.092,124.929,6.556,124.933z"/>
	<path fill="#949597" d="M272.522,162.928c-1.559,0.422-0.85,2.277-1.907,3.016c-0.836,1.057-1.034,3.171-3.081,2.384
		c-3.234-1.243-5.69,0.532-8.445,1.63c-5.601,2.232-11.67,2.228-17.536,3.184c-1.968,0.321-3.91,0.547-5.756,1.385
		c-8.141,3.693-16.435,6.781-25.535,7.19c-2.614,0.117-4.773,2.216-7.501,2.445c-1.935,0.163-3.906,1.098-5.564-0.718
		c0.102-4.507,2.876-7.624,5.61-10.762c2.264,0.169,4.464,1.003,6.784,0.69c0.71,0.046,1.409,0.174,2.121,0.206
		c5.333,0.67,9.606-3.362,14.863-3.258c6.916,0.137,13.157-2.686,19.487-5.002c1.713-0.627,3.421-1.446,5.265-1.262
		c5.377,0.538,9.108-3.408,13.725-4.888c0.92,0.318,1.865,0.675,2.12-0.817c3.111-3.955,3.669,0.702,5.351,1.577
		C272.522,160.928,272.522,161.928,272.522,162.928z"/>
	<path fill="#8F9092" d="M272.522,159.928c-1.928,0.983-2.68-3.932-4.998-0.997c-9.037-3.512-17.608-2.162-25.864,2.486
		c-0.749,0.211-1.464,0.154-2.134-0.265c-0.949-4.547,3.09-4.97,5.534-6.713c4.527-1.326,7.283-4.72,9.772-8.41
		c0.364-1.239,0.19-2.514,0.234-3.778c0.222-1.613,0.149-3.255,0.512-4.854c0.421-0.903,0.729-1.979,2.123-1.414
		c-0.024,0.165-0.062,0.329-0.07,0.495c-0.605,11.884-0.631,11.952,10.132,16.122c1.951,0.756,3.314,2.022,4.759,3.33
		C272.522,157.262,272.522,158.595,272.522,159.928z"/>
	<path fill="#B3B3B5" d="M130.645,11.034c-0.035-0.362-0.07-0.725-0.105-1.087c6.333,0,12.665,0,18.998,0
		c-0.029,0.311-0.006,0.619,0.069,0.922C143.309,13.532,136.983,13.029,130.645,11.034z"/>
	<path fill="#F5F5F6" d="M149.54,274.927c-0.003,0.329-0.003,0.658-0.002,0.987c-5.999,0-11.999,0-17.998,0
		c0.016-0.376,0.033-0.752,0.049-1.127c0.674-0.738,1.563-1.009,2.508-1.164C139.263,273.814,144.601,272.027,149.54,274.927z"/>
	<path fill="#DEDFE0" d="M6.556,124.933c2.564-2.841,1.427-7.161,3.998-10c1.085,1.093,1.118,2.431,0.906,3.83
		c-1.187,3.75-1.521,7.802-3.867,11.154c-0.346,0.005-0.691,0.01-1.037,0.016C6.556,128.265,6.556,126.599,6.556,124.933z"/>
	<path fill="#8B8C8F" d="M31.448,182.966c-1.646-5.32-3.76-9.004-10.846-8.221c-8.546,0.943-8.719,0.159-9.927-8.321
		c-0.162-1.139-0.038-2.319-0.046-3.481c1.712,0.854,3.262-0.224,4.881-0.425c15.827-1.961,31.714-0.585,47.571-0.856
		c3.282-0.056,5.256,2.567,7.724,4.118c1.373,0.862,2.397,2.277,4.129,2.598c2.448,2.033,3.495,4.658,3.293,7.808
		c-0.98,2.367-2.678,2.024-4.53,1.217c-2.705-1.177-5.468-0.961-8.337-0.61c-8.793,1.074-17.637,0.301-26.458,0.469
		c-1.328,0.025-2.674-0.271-3.981,0.089c-1.167,0.322-2.748,0.317-0.988,2.262c0.924,1.021,0.181,2.538-1.012,3.464
		C32.404,183.36,31.914,183.322,31.448,182.966z"/>
	<path fill="#9B9C9F" d="M54.617,241.895c-5.393-4.448-5.351-5.151,0.781-13.216c8.066,1.596,16.063,1.368,24.091-0.484
		c9.06-2.091,18.314-3.6,27.069-6.656c10.945-3.821,22.385-4.188,33.586-6.181c2.978-0.53,5.683-1.799,8.349-3.172
		c1.401-0.417,2.765-0.456,4.037,0.398c1.499,2.858-0.697,4.304-2.366,5.813c-2.063,1.866-4.764,2.316-7.4,2.71
		c-5.758,0.859-11.468,1.678-16.803,4.36c-3.286,1.653-7.046,1.715-10.74,1.87c-6.893,0.289-13.482,1.839-19.342,5.706
		c-4.691,2.206-9.596,4.032-13.682,7.377c-1.749,2.36-4.835-0.619-6.609,1.662c-0.341,0.282-0.683,0.564-1.024,0.846
		c-5.42,1.172-5.42,1.172-13.312-2.476c4.373,2.199,4.373,2.199-0.656,7.419l-0.017-0.014
		C58.908,245.553,57.05,243.436,54.617,241.895z"/>
	<path fill="#9A9A9D" d="M148.536,212.988c-1.915,2.644-5.047,3.403-7.789,3.716c-3.794,0.433-7.583,2.038-11.145,1.835
		c-12.598-0.718-23.524,5.566-35.432,7.695c-10.644,1.903-20.95,5.333-32.015,4.889c-2.819-0.113-5.109,0.126-6.756-2.444
		c0.602-1.894,2.079-3.791-0.027-5.672c0.549-1.271,1.649-1.64,2.866-1.527c7.515,0.694,14.949-0.708,22.407-1.082
		c11.077-0.554,22.1-2.282,32.305-7.219c2.555-1.236,5.126-2.265,8.145-1.414c2.49,0.702,4.916-0.452,7.363-0.901
		c5.204,0.202,10.389,0.719,15.604,0.631C145.675,211.468,147.348,211.586,148.536,212.988z"/>
	<path fill="#A4A5A7" d="M88.584,263.898c-1.347-3.819,0.156-7.349,1.109-10.935c16.109-4.271,32.422-7.748,48.257-13.097
		c5.766-1.948,11.955-2.647,17.647-5.006c1.676-0.193,3.302-0.527,4.599-1.741c1.24-0.877,2.634-1.213,4.131-1.184
		c8.915-3.264,18.256-5.321,26.819-9.564c0.44-0.204,0.899-0.35,1.368-0.468c3.157-0.205,5.747-2.292,8.847-2.692
		c0.716-0.15,1.439-0.19,2.168-0.17c3.335,0.455,6.538-2.566,9.943-0.393c0.754,2.615-1.217,3.633-2.841,4.86
		c-0.705,0.329-1.451,0.511-2.22,0.6c-9.742,1.129-19.027,3.778-27.573,8.655c-1.771,1.011-3.801,1.154-5.489,2.235
		c-0.644,0.4-1.328,0.703-2.058,0.903c-9.465,1.263-18.261,4.657-26.99,8.337c-7.922,3.339-15.657,7.251-24.376,8.32
		c-2.306,0.283-4.625,0.862-5.798,3.288c-0.796,1.395-2.734,1.193-3.573,2.575c-0.355,0.585-1.338,1.169-1.646,0.858
		c-3.425-3.452-7.38-0.87-11.008-0.887c-4.363-0.02-7.168,3.829-10.842,5.638C88.947,264.083,88.744,263.946,88.584,263.898z"/>
	<path fill="#898A8D" d="M74.537,168.957c-1.169,1.47-2.031,0.396-2.835-0.402c-4.405-4.372-9.477-6.101-15.858-5.77
		c-10.293,0.533-20.635,0.025-30.951,0.228c-2.526,0.05-5.754-1.661-7.526,1.849c-1.904-1.838-5.074,0.764-6.737-1.919
		c-0.809-3.845-3.363-8.207,2.946-9.944c2.004,0.715,3.611,2.641,6.262,0.982c1.598-1,3.908-0.446,5.905-0.448
		c10.49-0.008,20.981-0.013,31.471,0.003c2.33,0.003,4.808-0.301,6.885,0.815c3.619,1.943,4.071,0.392,3.475-2.743
		c-0.131-1.918-0.702-4.008,1.869-4.886c1.095,0.579,1.786,1.567,1.948,2.701c0.833,5.848,2.154,11.581,3.762,17.259
		C75.378,167.483,75.128,168.302,74.537,168.957z"/>
	<path fill="#A2A3A5" d="M164.536,232.919c-1.455-0.156-2.753,0.318-3.999,1c-1.157,1.018-2.872,0.922-3.999,2
		c-13.313,4.802-27.403,6.948-40.636,12.16c-5.11,2.012-10.765,3.381-16.518,2.832c-2.088-0.199-3.328,1.139-4.756,2.296
		c-1.635,1.325-3.413,2.253-4.934-0.244c-0.155-1.116-0.171-2.2,0.727-3.068c1.629-2.941,4.486-3.78,7.485-4.191
		c12.333-1.687,24.258-5.16,36.144-8.631c4.497-1.313,8.865-3.556,12.988-6.011c8.939-2.271,17.486-5.865,26.602-7.621
		c8.311-1.6,16.019-5.143,23.732-8.542c6.034-2.659,12.257-3.743,18.8-2.491c1.289,1.792-0.408,2.266-1.393,2.848
		c-3.521,2.082-7.195,3.842-11.247,4.663c-0.667,0-1.333,0-2,0c-3.138,0.584-6.185,1.444-8.999,3c-0.333,0-0.667,0-1,0
		c-5.303,2.63-11.132,3.771-16.682,5.688C171.287,229.84,167.789,231.027,164.536,232.919z"/>
	<path fill="#858689" d="M69.522,146.929c-1.629,1.413-0.736,3.317-0.974,5c-1.692,2.327-2.023-0.409-2.222-0.856
		c-1.394-3.138-3.943-3.708-6.977-3.697c-8.657,0.031-17.315,0.013-25.972,0.01c-2.537-0.001-5.027-0.049-6.312,2.856
		c-0.532,1.204-1.705,1.586-2.949,1.004c-1.124-0.527-1.217-1.44-0.622-2.466c-0.041-3.917-0.083-7.834-0.124-11.75
		c1.536-3.386,4.684-3.395,7.653-3.47c6.82-0.171,13.646,0.045,20.466-0.093c5.262-0.107,10.631,0.856,15.709-1.624
		c1.013-0.495,2.61-0.68,3.78,0.371C72.06,137.274,71.602,142.182,69.522,146.929z"/>
	<path fill="#97989B" d="M127.536,212.048c-2.684,1.121-5.234,2.069-8.328,0.803c-1.291-0.528-3.415,0.199-4.859,0.942
		c-12.547,6.461-26.075,7.673-39.876,8.282c-6.358,0.281-12.728,0.724-19.102,0.931c-0.651-0.675-1.301-1.351-1.951-2.026
		c1.357-3.92,3.91-6.035,8.244-5.46c3.78,0.502,7.247-1.131,10.635-2.162c5.861-1.784,12.324-0.652,17.783-3.96
		c4.72-0.998,9.537-0.493,14.307-0.775c2.717-0.16,5.123-0.672,7.335-2.205C117.23,207.639,122.916,208.35,127.536,212.048z"/>
	<path fill="#828386" d="M7.592,129.916c-0.057-3.969,1.505-7.52,2.876-11.119c1.074-0.076,2.036-0.459,2.909-1.092
		c1.775-1.826,3.102,0.036,4.61,0.533c14.442,0.393,28.873,0.039,43.302,0.172c4.012,0.037,7.336,0.882,7.769,5.713
		c-0.092,3.709-2.371,4.879-5.63,4.57c-8.264-0.783-16.542-0.254-24.812-0.381c-5.111-0.079-10.185-0.328-14.973,2.398
		c-3.057,1.74-7.236-0.387-10.256,2.287C10.938,132.943,9.063,131.81,7.592,129.916z"/>
	<path fill="#838487" d="M13.387,132.996c0.471-0.126,0.943-0.252,1.414-0.377c-3.503-6.9,0.078-4.116,3.326-2.572
		c1.778,0.845,4.302,0.433,5.665-0.652c3.342-2.662,7.049-2.586,10.832-2.439c9.901,0.384,19.844-0.952,29.711,0.752
		c2.244,0.388,3.245-1.185,4.213-2.774c0.042-0.769,0.195-1.506,0.629-2.164c1.178-1.217,2.388-2.191,3.908-0.446
		c0.34,3.546,0.412,7.019-2.681,9.606c-2.378,2.146-5.191,3.023-8.367,3.013c-9.902-0.029-19.805,0.074-29.706-0.059
		c-3.237-0.044-6.221,0.396-8.961,2.147C20.042,135.685,16.715,134.341,13.387,132.996z"/>
	<path fill="#87888B" d="M23.494,148.78c0.175,0.998,0.348,2.082,1.708,1.938c1.169-0.123,1.014-0.977,0.844-1.852
		c-0.553-2.847,1.497-2.906,3.347-2.912c11.085-0.039,22.17,0.004,33.254-0.032c4.162-0.013,4.516,3.042,5.067,6.008
		c0.018,0.1,0.261,0.221,0.397,0.218c0.147-0.003,0.291-0.14,0.437-0.219c1.054,0.96,1.535,2.896,0.295,2.917
		c-1.518,0.026-1.486,3.602-3.863,1.206c-1.414-1.425-4.028-1.161-6.227-1.15c-11.824,0.056-23.649,0.024-35.474,0.031
		c-1.164,0.001-2.66-0.388-3.433,0.18c-3.279,2.406-4.755,0.259-6.27-2.115C16.882,151.592,20.188,150.186,23.494,148.78z"/>
	<path fill="#949497" d="M26.232,207.007c-0.236-0.358-0.471-0.715-0.707-1.073c0.618-1.659,2.06-2.222,3.574-2.227
		c6.983-0.024,13.967-0.938,20.792-1.827c9.672-1.26,19.353-2.23,29.049-3.176c1.488-0.145,2.738-1.164,4.076-1.808
		c1.873-0.366,4.129,0.705,5.158-2.342c0.653-1.933,2.675-1.314,3.365,0.315c1.029,2.429,2.795,1.836,4.58,1.66
		c2.441,1.09,5.076,2.013,4.754,5.496c-1.125,2.43-3.327,2.822-5.674,3.321c-14.096,2.996-28.443,3.021-42.716,3.811
		c-2.009,0.109-3.968-1.393-6.022-0.197c-2.826,2.227-5.385,4.838-8.881,6.074l0.062-0.035c-2.005,0.735-1.813-0.221-2.479-1.879
		c-0.685-1.703-0.291-6.051-4.615-4.75C28.92,208.522,27.409,208.289,26.232,207.007z"/>
	<path fill="#919295" d="M95.533,197.097c-2.351,2.776-3.756,0.561-4.955-1.161c-0.146-0.209,0.207-1.436-0.717-1.595
		c-1.161-0.199-1.058,0.846-1.318,1.606c-0.962,2.807-1.267,2.858-3.997,0.975c-7.618-1.061-15.224-1.382-22.698,0.873
		c-9.478,2.86-19.185,1.116-28.78,1.422c-2.333,0.074-4.4-1.891-5.504-4.275c1.639-1.387,3.278-2.773,4.916-4.16
		c2.172-0.914,4.432-1.228,6.788-1.19c3.814,0.061,7.649-0.233,11.441,0.063c9.86,0.769,19.401-1.109,28.91-3.204
		c2.733-0.602,4.884-0.973,5.589,2.543c0.33,1.648,1.477,2.064,3.017,1.549C92.036,191.196,94.174,193.713,95.533,197.097z"/>
	<path fill="#929396" d="M27.564,194.943c15.034,4.038,21.282,3.981,37.66,0.312c5.645-1.265,11.537,0.398,17.276-0.88
		c1.086-0.242,1.489,1.562,2.046,2.548c-2.321,3.454-5.974,3.877-9.611,3.961c-7.282,0.167-14.357,1.083-21.582,2.376
		c-6.852,1.226-14.306,1.459-21.519,1.653c-2.157,0.058-4.35-0.21-6.309,1.023C21.497,200.546,21.773,199.06,27.564,194.943z"/>
	<path fill="#8F9093" d="M88.608,190.742c-2.849,4.004-3.65,1.005-4.502-1.369c-0.524-1.46-0.237-2.457-2.894-1.734
		c-15.981,4.345-32.39,3.497-48.732,3.145c2.165-2.937-1.474-5.108-1.032-7.817c0.368-0.013,0.736-0.026,1.104-0.039
		c6.081,0.281,12.158,0.55,18.248,0.682c6.655,0.144,13.182-1.139,19.799-1.169c3.254-0.015,5.307-2.502,7.921-3.828
		C84.276,180.658,86.737,185.454,88.608,190.742z"/>
	<path fill="#A1A2A4" d="M147.538,231.919c-6.708,4.539-14.363,6.644-21.978,9.094c-11.548,3.716-23.918,4.016-35.141,8.882
		c-0.858-2.329-3.674-2.166-4.985-3.919c0.165-0.651,0.609-1.055,1.185-1.347c0.401-0.136,0.813-0.201,1.235-0.213
		c1.34,0.021,2.518-0.545,3.722-1.04c8.485-4.061,17.952-4.375,26.874-6.813c8.716-2.382,17.208-6.313,26.527-6.368
		C146.077,230.407,146.977,230.913,147.538,231.919z"/>
	<path fill="#A6A7A9" d="M115.542,255.916c-1.169-3.213,1.107-3.699,3.32-4.03c11.329-1.695,21.331-7.003,31.847-11.043
		c7.204-2.768,14.558-6.585,22.827-5.924c0.466,2.761-1.637,3.789-3.455,4.844c-2.444,1.418-5.109,2.324-7.844,3.117
		c-9.404,2.727-18.705,5.769-27.07,11.042c-1.603,1.011-3.484,1.068-5.109,1.89c-3.095,2.735-7.245,0.236-10.518,2.116
		c-0.667-0.055-1.334-0.11-2.001-0.165C116.888,257.129,115.945,256.815,115.542,255.916z"/>
	<path fill="#ABACAE" d="M157.498,258.812c-2.115,0.337-4.651-0.015-5.07,3.098c-4.273-1.491-7.317,2.217-10.99,2.629
		c-4.698,0.526-7.887,4.904-12.796,4.345c-0.638-2.995-1.276-5.989-1.914-8.984c1.168-1.999,3.609-1.814,5.221-3.057
		c0.594-0.393,1.233-0.675,1.931-0.822c2.794,0.158,5.591,0.384,8.351-0.336c4.356-1.073,9.103-0.345,12.933-3.893
		c1.7-1.575,4.532-2.782,7.28-1.2c0.932,1.952-0.677,2.614-1.809,3.478c-0.795,0.606-2.136,0.62-2.599,1.329
		C157.439,256.313,156.298,257.48,157.498,258.812z"/>
	<path fill="#969799" d="M90.545,209.922c-0.876,1.865-2.712,2.977-4.393,2.825c-9.364-0.846-17.634,5.235-27.065,4.024
		c-2.714-0.348-3.173,3.567-5.665,4.21c-2.161-1.568-3.576-3.717-4.729-6.07c0.629-1.737,1.005-3.681,3.318-4.053
		c11.043-0.585,22.12-0.638,32.998-3.084C87.038,207.318,89.393,207.436,90.545,209.922z"/>
	<path fill="#A6A7A9" d="M115.542,255.916c1.213,0.024,1.93,0.584,1.995,1.847c-5.382,0.007-5.897,4.944-8.186,8.083
		c-3.993,0.103-8.201-1.841-11.878,1.254c-3.169-0.495-6.453-0.671-8.889-3.202c3.897-4.358,8.374-7.328,14.607-7.06
		c2.563,0.11,5.163-0.637,7.891-1.014c1.028,0.954-1.633,1.65-0.349,2.95C112.207,257.629,113.476,256.034,115.542,255.916z"/>
	<path fill="#AEAFB1" d="M128.64,268.882c3.989-1.863,7.284-5.31,12.138-5.232c0.772,0.012,1.699-0.301,2.304-0.78
		c2.942-2.329,5.962-3.23,9.346-0.961c0.416,1.82-0.654,3.353-0.974,5.03c-0.64,0.752-0.287,2.329-2.144,2.06
		c-5.516-0.801-9.553,3.999-14.881,4.133c-0.35,0.009-0.385,1.185-0.9,1.644c-0.647,0.004-1.294,0.008-1.941,0.011
		C130.245,272.999,127.936,271.693,128.64,268.882z"/>
	<path fill="#A0A0A3" d="M60.596,247.871c0.285-0.553,0.964-1.362,0.796-1.62c-2.391-3.674,0.957-2.48,2.855-2.665
		c-1.637-2.175-3.695-2.582-5.652-3.164c4.311-0.897,7.688-0.164,8.444,5.555c1.476-4.945,4.427-4.224,7.525-3.05
		c-2.541,2.063-4.96,4.304-7.659,6.133C64.642,250.594,62.243,250.674,60.596,247.871z"/>
	<path fill="#959598" d="M30.553,206.922c1.571,1.125,3.232-0.391,4.886,0.153c0.384,1.312-1.711,1.717-1.468,1.7
		c2.203-0.158,0.611,6.543,5.009,1.833c-1.266,1.591-1.858,3.852-1.337,4.391c-5.143,2.438-5.61,2.192-9.373-4.927
		C28.485,208.626,29.399,207.688,30.553,206.922z"/>
	<path fill="#AAAAAC" d="M97.473,267.101c4.139-4.386,6.419-4.626,11.879-1.254C106.507,270.754,106.507,270.754,97.473,267.101z"/>
	<path fill="#9E9FA2" d="M87.545,244.918c-0.703,0.353-1.407,0.706-2.11,1.059c-3.478-0.804-6-4.025-9.847-3.896
		c0.922-3.65,4.413-0.227,5.958-2.162c1.972-1.175,3.788-0.411,5.602,0.444C88.672,241.758,88.913,243.269,87.545,244.918z"/>
	<path fill="#A9A9AC" d="M132.54,257.916c-1.651,1.502-3.913,1.214-5.814,1.983c-2.08-1.808-5.098-0.198-7.188-1.971
		c1.971-2.757,4.687-2.907,7.547-1.938c1.325,0.449,1.359-0.194,1.455-1.073C131.029,254.376,131.441,256.603,132.54,257.916z"/>
	<path fill="#929396" d="M50.552,211.922c-0.999,0.76,0.359,2.987-1.859,2.989c-0.722-0.964-1.443-1.928-2.165-2.891
		c-1.917-1.377-1.98-2.743,0.023-4.097c1.333-0.928,2.666-0.528,4,0C51.609,209.255,51.609,210.588,50.552,211.922z"/>
	<path fill="#959598" d="M46.55,207.922c-0.964,1.36-0.828,2.727-0.023,4.097c-3.281,0.118-5.587,3.13-8.947,3.014
		C40.847,213.012,42.863,209.413,46.55,207.922z"/>
	<path fill="#A0A0A3" d="M54.617,241.895c3.462,0.513,5.031,2.919,5.962,5.963C58.212,246.249,56.159,244.328,54.617,241.895z"/>
	<path fill="#929396" d="M30.553,206.922c-0.631,1.143-0.962,2.504-2.282,3.149c-1.062-0.767-1.686-1.825-2.037-3.064
		C27.686,207.702,29.116,207.111,30.553,206.922z"/>
	<path fill="#76777A" d="M51.394,66.589c0.327-2.061,3.479-2.994,2.264-5.671c-0.056-4.867,3.015-6.654,7.218-7.279
		c2.481-0.369,4.986-0.251,7.483-0.253c48.963-0.039,97.925,0.065,146.888-0.054c3.035-0.007,6.246-0.287,6.726,3.993
		c-0.298,0.745-1.026,1.115-1.522,1.668c-0.513,0.572-1.251-1.12-1.016,0.088c0.212,1.09,0.797-0.036,1.206-0.217
		c1.236,0.449,1.727-1.685,3.07-0.891c-0.609,4.824,4.664,6.062,5.938,9.739c0.487,1.344-0.088,2.626-0.219,3.936
		c-0.538,5.395-0.535,5.402-4.843,2.44c-1.46-1.004-3.093-1.129-4.782-1.049c-13.485,0.641-26.978,0.131-40.467,0.295
		c-2.163,0.026-4.399-0.253-6.44,0.542c-3.641,1.42-6.688,1.093-8.623-2.603c0.028,3.714-2.463,4.324-4.998,4.905
		c-5.671-0.015-11.131-1.649-16.82-1.926c-8.631-0.421-16.81,1.81-25.176,2.901c-1.062-0.288-2.196-0.277-2.663-1.734
		c-0.981-3.059-1.12-3.135-3.551-1.898c-2.134,1.086-3.879,1.605-5.577-0.805c-1.318-1.871-3.591-1.41-5.545-1.417
		c-9.623-0.035-19.246-0.026-28.869-0.012c-6.284,0.009-12.608,0.429-18.636-1.991C51.508,68.616,50.914,67.808,51.394,66.589z"/>
	<path fill="#747578" d="M220.528,58.942c1.332-2.925,0.661-4.237-2.819-4.229c-50.644,0.121-101.288,0.208-151.932,0.166
		c-5.256-0.004-9.907,0.343-12.12,6.04c-0.954-1.747-1.897-3.501-2.864-5.241c-4.381-7.882-3.298-7.05,3.15-11.528
		c0.82-0.57,1.801-0.97,2.482-1.668c4.185-4.284,8.087-4.205,11.976,0.441c2.893,3.457,5.962,3.342,9.284,0.337
		c1.312-1.187,3.151-1.792,4.75-2.662c1.687,1.003,3.098,2.28,4.526,3.964c0.275-1.872,0.982-3.211,3.8-3.042
		c32.007,1.918,64.056,0.691,96.086,1.027c2.16,0.023,4.332-0.136,6.472,0.243c2.527,0.448,3.239,0.185,4.198-1.763
		c2.866,1.523,5.702,3.456,8.894,0.672c6.407,1.165,12.5,3.237,18.241,6.468c-3.104-1.352-5.469-2.81-2.116-6.253
		c8.175,5.782,8.251,6.814,1.175,16.06C222.669,58.361,222.044,60.116,220.528,58.942L220.528,58.942z"/>
	<path fill="#727377" d="M197.516,41.026c-0.994,1.459,0.333,1.914,1.084,2.716c0.921,0.984,0.112,1.908-0.516,2.611
		c-0.619,0.694-1.682,0.796-1.955-0.234c-0.939-3.542-3.774-2.105-5.769-2.112c-28.234-0.096-56.469,0.016-84.703-0.136
		c-5.455-0.029-10.907-0.944-16.353-1.522c-0.894-0.095-1.328-0.014-0.859,0.887c1.137,2.188-0.802,2.723-1.949,2.929
		c-1.449,0.26-2.688-0.439-0.988-2.104c-2.383,0.05-3.203-1.286-3.073-3.465c5.41-2.104,7.12-6.168,6.168-11.642
		c5.872,4.514,12.743,3.406,19.405,3.433c25.953,0.106,51.907-0.066,77.86,0.004c2.129,0.006,4.022-0.075,4.584,2.532
		C190.896,39.17,195.56,38.532,197.516,41.026z"/>
	<path fill="#797A7D" d="M159.282,75.059c1.577-0.707,4.193-0.173,3.375-3.539c-0.255-1.049,1.864-0.646,2.252-0.225
		c2.58,2.797,5.167,2.683,8.252,0.806c0.978-0.595,2.596-0.138,3.921-0.162c14.564-0.259,29.139,0.556,43.694-0.452
		c3.518-0.244,6.1,0.809,7.159,4.719c-0.181-3.135-0.886-6.175,1.712-8.495c0.912,0.93,2.035,1.732,2.695,2.816
		c1.577,2.594,3.398,2.821,6.194,1.786c9.345-3.458,9.387-3.344,14.129,6.354c0.216,2.247-1.391,2.006-2.511,1.506
		c-5.876-2.625-15.754-2.074-20.502,0.334c-6.97,3.535-14.312,4.032-21.608,5.278c-5.932,1.013-11.974,0.237-17.963,0.438
		c-2.131,0.072-4.412-0.27-5.835,1.952c-1.243,0.562-2.295,0.038-3.25-0.657c-5.969-4.34-12.562-7.474-19.397-10.157
		C160.526,76.942,159.383,76.499,159.282,75.059z"/>
	<path fill="#707175" d="M190.453,34.924c-1.176-2.318-2.978-0.77-4.559-0.773c-30.25-0.054-60.502-0.334-90.747,0.004
		c-4.661,0.052-4.151-3.816-6.544-5.2c-0.077-0.656-0.153-1.312-0.23-1.968c7.171-1.186,14.343-2.391,21.147,1.512
		c1.45,0.866,3.074,0.647,4.653,0.716c3.807,0.788,7.635,0.158,11.45,0.137c1.446-0.008,2.832,0.038,2.703-2.418
		c-0.117-2.227,2.238-2.073,3.821-2.162c4.65-0.262,9.322,0.169,13.968-0.382c0.84-0.1,2.101-0.124,2.273,0.58
		c1.006,4.113,3.249,1.72,5.165,1.116c1.774,0.279,3.655,0.27,5.301,0.889c5.402,2.03,9.079,0.724,10.791-5.01
		c1.786-1.361,3.303-4.959,5.768-0.723c0.348-0.145,0.67-0.31,0.968-0.536c1.037-1.018,2.056-2.046,3.529-2.413
		c0.681-0.121,1.342-0.056,1.989,0.189c2.566,2.79,7.291,3.348,8.219,7.884c0.012,0.061,0.673-0.804,1.286-0.395
		C191.744,29.026,191.278,31.994,190.453,34.924z"/>
	<path fill="#808184" d="M248.693,98.576c2.101,3.435,3.304,7.182,3.878,11.148c0.814,1.056,3.053,0.958,2.515,3.107
		c-0.52,2.077-2.325,1.983-3.906,2.424c-8.811,2.458-17.972,1.814-26.899,3.134c-5.53,0.818-11.168,1.586-16.005,4.833
		c-4.859-3.452-6.078-8.738-7.1-14.124c2.564-2.305,5.538-3.346,9.023-3.489c11.998-0.491,24.153-0.052,35.427-5.407
		C246.845,99.623,248.573,98.966,248.693,98.576z"/>
	<path fill="#7E7F82" d="M248.693,98.576c-0.29,1.154-0.637,1.697-1.945,2.584c-5.764,3.91-12.636,3.303-18.789,5.411
		c-2.838,0.972-6.542-0.502-10.087,0.109c-5.448,0.938-11.244-0.43-16.491,2.302c-1.244,0.09-1.373-0.816-1.533-1.698
		c0.113-1.572-1.047-2.189-2.162-2.846c-1.498-1.353-2.835-2.782-2.461-5.044c1.361-1.793,2.027-5.178,5.412-2.386
		c1.289-1.829,3.206-2.212,5.276-2.531c11.868-1.825,23.813-0.405,35.71-0.94c2.29-0.103,3.873,1.753,5.908,2.396
		C248.458,96.577,248.62,97.557,248.693,98.576z"/>
	<path fill="#858689" d="M267.639,111.587c0.975,5.649,1.958,11.297,2.92,16.948c0.235,1.382-0.462,2.185-1.744,2.562
		c-10.845-3.28-21.709-1.625-32.571-0.116c-0.656,0.091-1.404,0.245-1.838,0.693c-5.632,5.805-13.202,4.219-20.064,5.284
		c-2.035,0.316-3.977-0.029-5.339-1.857c-1.039-2.363-1.918-4.747-0.924-7.365c2.058-2.639,5.056-2.943,8.053-3.141
		c2.975-0.197,5.952-0.233,8.933-0.478c8.036-0.658,16.12-0.504,23.348-5.253c2.562-1.684,6.064-1.183,9.261-0.738
		c6.136,0.854,6.234,0.706,8.693-5.066C266.632,112.435,267.058,111.943,267.639,111.587z"/>
	<path fill="#838487" d="M267.639,111.587c-1.634,9.535-1.62,9.456-11.761,7.637c-4.836-0.867-9.037,1.184-12.845,3.846
		c-1.568,1.096-2.962,2.052-4.931,1.866c-7.486-0.708-14.847,1.37-22.323,1.012c-2.564-0.123-4.85,0.931-7.114,1.981
		c-1.888-1.332-2.603-2.921-1.098-4.998c3.328-5.61,9.601-4.441,14.518-5.635c5.444-1.322,11.351-2.643,17.16-0.664
		c0.659,0.225,1.784,0.02,2.302-0.433c2.779-2.43,6.077-2.347,9.428-2.291c1.096,0.018,2.46,0.428,3.144-0.875
		c0.886-1.689-1.28-2.082-1.55-3.308c3.327,1.234,6.772,0.242,10.149,0.533C264.443,110.406,266.362,109.801,267.639,111.587z"/>
	<path fill="#7B7C7F" d="M184.188,88.238c-0.622-1.894-0.115-3.03,2.049-3.073c3.643-0.072,7.296-0.373,10.925-0.184
		c9.437,0.491,18.612-1.411,27.676-3.421c2.502-0.555,4.626-3.4,7.873-2.938c3.964,0.563,7.689-3.18,11.773-0.681
		c0.706-1.605,2.518,1.938,3.026-0.652c0.089-0.453,0.31-1.275,0.422-1.267c0.943,0.069,0.395,0.961,0.679,1.424
		c0.981,1.603,1.958,3.286,4.052,1.222c6.613,5.207,6.393,6.552-2.171,13.25c-5.084,0.183-8.774-4.421-14.21-3.744
		c-5.221,0.651-10.498,0.305-15.784,1.447c-7.778,1.68-15.878,0.178-23.776,1.417c-1.3,0.204-2.565-0.57-3.698-1.286
		c-2.436-1.828-5.298,1.001-7.751-0.685C184.856,88.864,184.498,88.582,184.188,88.238z"/>
	<path fill="#88888B" d="M209.715,134.927c7.55,0.265,15.54,2.267,21.984-3.318c4.299-3.725,9.463-2.042,14.115-3.394
		c5.795-1.684,12.002,1.038,18.068-0.835c2.061-0.636,3.293,2.398,4.934,3.717c-3.282,2.59-7.295,3.517-11.114,4.885
		c-0.939,0.312-1.146,1.076-1.192,1.938c-8.04,2.008-17.023-3.064-24.511,3.283c-0.885,0.75-2.177,0.954-3.336,0.764
		c-3.365-0.553-6.071,0.803-8.88,2.442c-3.362,1.963-6.893,2.405-9.975-0.831C208.878,140.703,207.181,137.836,209.715,134.927z"/>
	<path fill="#7C7D80" d="M192.532,87.937c2.024,1.65,4.243,2.041,6.906,1.921c13.661-0.616,27.169-3.32,40.9-2.946
		c1.728,0.047,3.888,0.125,4.59,1.402c1.946,3.539,3.794,2.042,5.681,0.139c1.018,1.45-2.157,2.207-0.117,3.466
		c-0.725,1.532-2.863,2.022-2.962,4.015c-1.02,0.163-1.794,2.772-2.583,1.156c-1.684-3.452-4.396-2.181-6.749-2.104
		c-10.741,0.352-21.485-0.675-32.257,0.698c-3.415,0.435-3.609,2.152-4.653,4.981c-0.808-1.665-1.375-2.835-2.066-4.26
		c-1.383,1.317-2.549,2.428-3.715,3.538c-4.065-1.072-5.722-4.428-7.387-7.782C188.425,89.537,190.923,89.202,192.532,87.937z"/>
	<path fill="#707074" d="M153.554,26.088c-0.498,3.794-4.854,0.942-5.752,3.94c-1.323-1.863-0.422-3.07,0.739-4.437
		c-0.987-0.105-1.448-0.272-1.851-0.18c-4.909,1.126-9.886,0.242-14.821,0.54c-1.423,0.086-3.845-0.588-1.702,2.323
		c0.315,0.428-0.42,1.988-1.643,2.024c-4.999,0.146-10.036,1.647-14.984-0.355c-0.591-1.109,0.32-1.43,0.986-1.88
		c10.451,0.271,14.407-5.827,14.964-15.258c-0.663-0.07,0.989,0.201,0.347,0.381c-0.014,0.004,0.053,0.295,0.082,0.452
		c5.312-4.343,10.911-0.206,16.363-0.385c2.044-0.067,2.621,2.587,2.696,4.454c1.592-1.079-3.691-4.557,1.482-4.762
		C152.402,17.112,151.51,21.945,153.554,26.088z"/>
	<path fill="#737477" d="M222.534,41.913c-3.006,5.177,3.554,4.235,4.909,7.738c-7.569-2.501-14.524-4.586-21.033-7.953
		c0.855-0.765,1.662-1.591,2.571-2.284C216.06,34.017,217.268,34.247,222.534,41.913z"/>
	<path fill="#6C6D70" d="M150.46,12.946c-2.186,0.272-1.416,1.562-1.151,2.9c0.247,1.247,0.053,2.582-0.319,4.338
		c0.31-6.299-3.496-6.623-7.907-6.271c-1.615,0.129-3.247,0.19-4.809-0.757c-3.297-1.998-5.12-0.35-6.2,2.832
		c-0.979-0.936-0.327-2.146-0.585-3.182c0.385-0.591,0.77-1.182,1.155-1.772c6.321-0.055,12.641-0.11,18.962-0.165
		C150.533,11.298,150.588,12.084,150.46,12.946z"/>
	<path fill="#707173" d="M179.537,18.934c-1.001,1.004-2.002,2.008-3.002,3.011c-0.355-0.177-0.446-0.43-0.274-0.757
		c-0.616,0.508,0.304,0.462,0.273,0.758c-3.417,2.919-3.106-0.209-3.395-2.199c-1.471,0.413-1.002,3.598-3.494,2.22
		c3.246-7.567,4.048-8.129,8.978-6.294C179.154,16.696,180.338,17.536,179.537,18.934z"/>
	<path fill="#6F7071" d="M191.404,25.971c-0.888-0.939-0.438,4.444-1.981,0.418c-1.436-3.749-6.283-3.891-7.893-7.458
		c-0.549-1.063,0.132-1.459,0.963-1.773c1.649,0.666,3.247,1.543,4.957,1.956C191.286,20.041,192.338,22.388,191.404,25.971z"/>
	<path fill="#696A6C" d="M182.494,17.159c-0.321,0.591-0.642,1.182-0.963,1.773c-0.665,0-1.329,0.001-1.994,0.002
		c-0.305-1.087-0.61-2.174-0.914-3.261C179.913,16.168,181.203,16.663,182.494,17.159z"/>
	<path fill="#A1A1A4" d="M147.538,231.919c-0.823-0.02-1.569-0.195-2-1c5.336-5.208,11.624-8.193,19.076-9.378
		c6.588-1.048,13.367-2.289,19.548-4.198c4.817-1.488,10.219-3.338,14.778-6.272c5.096-4.599,11.637-5.368,17.95-6.589
		c9.446-1.827,18.111-6.359,27.653-7.799c1.638-0.247,3.302-0.93,4.921-0.427c1.326,0.412,1.764,0.307,2.146-1.137
		c0.365-1.38,1.452-2.261,3.053-1.245c0.616,0.441,1.232,0.882,1.848,1.324c2.133,4.093,1.118,6.72-3.6,6.698
		c-4.897-0.023-7.944,3.697-12.262,4.485c-2.19,0.4-1.672,2.436-2.157,3.855c-2.266-0.954-3.425,0.842-4.859,1.956
		c-1.081-1.606-4.902,3.965-4.531-1.729c0.027-0.412-0.32,0.605-0.777,0.503c-4.194-0.935-7.602,2.88-11.797,1.956
		c-8.692-0.269-16.594,2.392-24.592,5.607c-7.159,2.878-14.503,5.336-22.238,7.034C162.353,227.175,154.867,229.566,147.538,231.919
		z"/>
	<path fill="#969799" d="M197.513,182.862c2.474,1.92,5.355,0.328,7.193-0.398c7.533-2.976,15.675-3.042,23.234-5.602
		c0.154-0.052,0.366,0.007,0.486-0.077c8.384-5.885,18.37-5.34,27.812-7.018c1.577-0.28,3.152-1.104,4.502-2.013
		c2.178-1.467,4.141-2.758,6.648-0.583c1.615,1.401,2.125-0.861,3.228-1.227c-0.207,8.753-0.484,8.856-9.332,9.09
		c-4.106,0.109-9.717-2.313-10.727,4.887c-0.473,0.503-0.686,1.342-1.616,1.254c-5.757-0.476-11.664-0.764-17.178,0.681
		c-10.828,2.837-21.364,6.756-32.323,9.196c-4.67,1.04-4.065-2.487-4.631-5.074C195.166,184.467,195.382,182.83,197.513,182.862z"/>
	<path fill="#9E9EA1" d="M254.664,193.873c-3.297,0.373-2.351,2.678-1.992,4.625c-5.855-2.78-11.827-0.556-16.539,1.481
		c-4.69,2.027-9.598,2.977-14.292,4.635c-7.362,2.599-15.701,2.259-22.309,7.307c-13.02,3.325-26.251,5.845-38.962,10.358
		c-1.922,0.682-3.897,1.956-6.129,0.867c-1.19-2.681,0.677-3.731,2.617-4.324c3.235-0.989,5.945-2.826,8.796-4.526
		c3.704-2.209,7.761-3.497,12.081-4.345c8.429-1.654,16.789-3.58,25.042-6.172c13.355-4.193,26.715-8.475,40.425-11.475
		c1.583-0.346,3.312-0.463,4.635-1.624c0.657-0.786,1.392-1.456,2.447-1.65C252.281,190.296,254.102,191.542,254.664,193.873z"/>
	<path fill="#ABABAD" d="M162.536,250.917c-4.102,0.66-8.622,0.517-10.387,5.58c-0.217,0.624-1.166,1.209-1.551,0.687
		c-2.633-3.575-5.41,0.347-8.06-0.267c-0.749-2.892,1.436-3.719,3.346-4.695c3.12-1.594,6.472-2.805,9.821-3.52
		c14.974-3.198,28.149-11.467,43.137-14.818c6.439-1.439,12.195-5.843,18.875-7.375c0.412-1.531,1.749,2.225,2.377-0.547
		c0.605-2.672,3.317-2.184,5.465-2.116c1.456,1.799,2.69,3.702,2.827,6.111c-0.397,0.536-0.223,1.582-0.788,1.742
		c-6.621,1.877-12.157,6.55-19.16,7.413c-4.645,0.471-7.25,4.962-11.651,5.915c-8.143-2.922-14.957,2.508-22.442,3.715
		C170.417,249.374,166.731,251.499,162.536,250.917z"/>
	<path fill="#98999C" d="M195.46,185.722c0.749,4.094,2.04,3.865,6.427,3.216c8.922-1.32,16.902-5.14,25.462-7.232
		c5.572-1.362,10.896-2.418,16.554-1.466c0.383,0.064,0.966-0.027,1.2-0.281c2.241-2.435,2.225-2.45,4.417,0.964
		c0.394,1.573-1.137,2.782-0.819,4.34c0.046,0.245-0.008,0.466-0.162,0.662c-1.199,2.416-2.407,4.794-5.02,1.171
		c-1.248-1.931-2.724-2.838-4.929-1.307c-1.953,1.356-4.25,2.184-6.533,2.141c-6.729-0.128-12.186,3.791-18.296,5.578
		c-6.243,1.827-12.381,3.554-18.864,3.149c-2.656-0.166-4.401,0.958-6.271,2.332c-2.32,1.705-3.967,1.369-4.695-1.613
		C186.845,192.574,190.505,188.508,195.46,185.722z"/>
	<path fill="#A8A8AA" d="M225.56,223.845c-0.135,0.569,0.01,1.627-0.875,1.358c-4.132-1.256-4.164,1.167-3.497,4.613
		c-1.167-1.271-1.913-2.083-2.658-2.896c-2.956-1.635-5.576-0.275-7.925,1.238c-3.962,2.553-8.172,3.997-12.816,4.881
		c-4.508,0.857-8.523,3.468-12.883,5.045c-8.513,3.079-17.221,5.537-25.75,8.542c-6.084,2.143-12.395,3.867-17.751,7.577
		c-2.478,1.716-5.477,1.181-7.865,2.714c-0.333,0.333-0.667,0.667-1,1c-2.154,0.094-2.241-2.567-3.999-3
		c13.056-6.21,26.47-11.519,40.245-15.903c2.224-0.708,3.594-2.235,4.749-4.094c0.333-0.333,0.667-0.667,1-1
		c10-1.891,19.775-4.584,29.178-8.494c1.645-0.684,3.333-1.438,4.818-2.504c0.667,0,1.333,0,2,0
		c2.304-2.282,6.536-0.533,8.279-3.972c2.569-2.876,4.078-2.703,8.78,1.002C227.031,221.31,225.421,222.122,225.56,223.845z"/>
	<path fill="#ACADAF" d="M162.536,250.917c10.005-3.878,20.822-5.072,30.72-9.304c3.87-1.655,0.75,3.932,3.531,3.412
		c-1.309,1.585-3.086,2.382-4.992,2.963c-1.091,0.592-1.369,2.321-3.082,2.074c-7.39-1.066-13.497,1.411-18.562,6.77
		c-0.455,0.481-1.15,0.58-1.798,0.186c-3.618,0.598-7.236,1.196-10.855,1.794c-2.754-1.398-1.388-3.053-0.024-4.273
		C159.006,253.167,161.535,253.111,162.536,250.917z"/>
	<path fill="#A4A4A6" d="M227.589,219.95c-1.054-0.418-2.28-1.56-3.218-0.773c-3.229,2.708-1.929-1.186-2.927-2.053
		c-0.692,1.01-1.303,1.903-1.915,2.796c-1.888-1.005-4.502,2.349-5.999-1c-3.481-1.149-6.496,2.366-9.999,1
		c4.333-2.333,8.666-4.666,12.998-6.999c3.68-0.811,6.569-4.119,11.005-2.887c1.899,0.528-0.816-1.871,0.811-2.485
		c1.522,1.112,2.024,2.653,1.435,4.272c1.392,1.534,2.726-3.694,3.854,0.369C232.241,215.262,230.158,217.795,227.589,219.95z"/>
	<path fill="#AFAFB1" d="M168.352,257.018c5.592-6.232,12.077-9.977,20.86-7.797c0.714,0.177,1.713-0.795,2.58-1.233
		c-0.07,0.605-0.141,1.211-0.212,1.816c1.602,2.902-1.339,3.812-2.421,5.536c-5.511-1.064-10.268,0.273-14.108,4.475
		c0.116,0.88-1.759-0.779-1.275,1.212c0.565,2.324-0.626,2.787-2.276,0.898C170.147,260.484,168.998,258.913,168.352,257.018z"/>
	<path fill="#AFAFB1" d="M208.438,239.111c5.186-3.333,11.492-4.495,16.393-8.481c0.595-0.484,2.602,1.25,3.555-0.673
		c1.194,3.413,1.448,5.042-2.862,7.758c-3.653,2.302-7.392,3.858-11.225,5.298C211.191,244.181,210.299,240.604,208.438,239.111z"/>
	<path fill="#A4A4A6" d="M238.493,210.235c-1.209-1.815-1.831-3.85,0.898-4.504c4.469-1.071,7.572-5.288,12.922-4.733
		c2.335,0.242,5.826-1.666,4.199-5.802c3.035,1.368,4.083,3.092,1.512,6.018c-1.163,1.324-1.766,3.14-2.623,4.732
		c-4.367,3.425-8.976,6.129-14.875,4.977C239.757,210.963,239.009,210.943,238.493,210.235z"/>
	<path fill="#B3B4B5" d="M188.533,254.917c1.41-1.469,3.346-2.624,3.047-5.112c2.538,2.535-0.451,4.101-1.167,5.969
		c-1.463,3.817-3.619,7.097-7.213,9.489c-6.668,4.439-8.392,4.07-11.7-3.339c1.185,0.431,2.22,0.985,1.495-1.234
		c-0.66-2.018,0.838-0.849,1.539-0.773c0.952,0.147,2.229,0.805,2.782-0.138C179.905,255.362,184.522,255.888,188.533,254.917z"/>
	<path fill="#B1B1B3" d="M133.53,274.776c-0.692-2.419,0.018-3.201,2.714-3.6c5.2-0.769,9.815-3.937,15.211-4.237
		c0.046,2.827-0.41,5.532-1.914,7.987C144.203,274.877,138.867,274.826,133.53,274.776z"/>
	<path fill="#A9A9AB" d="M240.526,210.923c0.051-0.321,0.103-0.643,0.154-0.964c4.815,1.617,8.163-2.647,12.464-3.132
		c0.776-0.087,1.506-0.577,2.257-0.881C252.369,215.2,250.396,215.86,240.526,210.923z"/>
	<path fill="#9C9C9F" d="M244.526,186.925c2.149,2.922,2.387-1.826,4.014-1c0.648,1.035,1.297,2.07,1.945,3.104
		c-0.32,0.632-0.64,1.264-0.96,1.896c-2.09,0.368-4.411,1.85-5.797-1.201C243.532,188.659,243.65,187.683,244.526,186.925z"/>
	<path fill="#9C9C9F" d="M248.702,185.263c-1.397-1.762,0.049-2.987,0.819-4.34c0.345-0.334,0.69-0.668,1.035-1.002
		C250.73,181.977,249.937,183.696,248.702,185.263z"/>
	<path fill="#7A7B7E" d="M29.482,71.782c5.028-0.624,8.934,2.454,13.295,4.03c-0.059,0.375-0.174,0.731-0.304,1.045
		c0.711,0.848,1.31-0.169,1.966-0.114c16.261,1.742,32.628-0.167,48.822,1.439c3.95,0.392,8.575-0.342,12.302,2.257
		c0.571,1.047,0.214,2.052-0.58,2.636c-3.791,2.785-7.044,6.417-11.819,7.69c-2.838-0.552-5.403-1.115-8.565,0.028
		c-1.36,0.492-4.776-0.476-7.294-0.525c-14.118-0.273-28.241,0.49-42.364-0.38c-2.885-0.178-5.854,0.508-8.734-0.367
		c-1.41-0.428-0.58,3.113-2.605,1.398c-2.905-1.159-3.372-3.036-1.9-5.732c1.308-2.396,2.386-4.918,3.565-7.384
		c3.457-0.384,7.003-0.435,9.803-2.654C33.281,74.084,29.674,75.859,29.482,71.782z"/>
	<path fill="#78797D" d="M105.953,81.141c-3.026-1.677-5.933-0.87-8.824,0.412c-0.795,0.353-1.713,0.548-2.058-0.468
		c-0.378-1.111,1.218-0.86,1.543-2.147c-12.231,0-24.349-0.148-36.461,0.066c-5.589,0.099-11.068-0.727-16.601-1.065
		c-0.729-0.212-2.199,1.05-2.002-1.006c0.409-0.373,0.818-0.747,1.227-1.121c3.061-0.855,3.245-4.517,5.759-5.905
		c1.551,0.56,2.427-1.674,4.013-0.969c1.454,0.11,2.848-2.561,4.46,0.218c0.91,1.569,3.082,0.749,4.678,0.755
		c13.447,0.049,26.894-0.018,40.341,0.077c2.031,0.014,4.938-1.141,5.261,2.725c0.074,0.883,3.122,0.802,3.37-0.294
		c0.387-1.706,1.742-3.451,2.44-2.191c0.841,1.517,4.044,2.299,2.46,5.141c-0.408,0.732,0.902,0.494,1.383,0.774
		C114.279,80.007,110.344,81.076,105.953,81.141z"/>
	<path fill="#7E7F82" d="M27.533,109.882c1.371-3.34,1.953-6.988,3.945-10.086c0.639-0.091,1.079,1.808,1.775,0.316
		c1.455-3.115,4.162-3.564,7.09-3.582c12.479-0.076,24.959-0.086,37.437,0.012c2.647,0.021,5.49-0.016,6.51,3.334
		c-1.069,5.385-4.206,9.594-7.744,13.579c-2.223,1.034-4.271,1.199-6.557-0.245c-1.47-0.929-3.223-1.804-5.117-1.783
		c-11.274,0.123-22.561-0.875-33.82,0.369c-1.184,0.131-2.318,0.181-3.363-0.506C27.241,110.864,27.19,110.394,27.533,109.882z"/>
	<path fill="#7C7D80" d="M83.535,100.893c-0.222-2.739-2.133-2.968-4.291-2.965c-13.474,0.019-26.949,0.095-40.422-0.038
		c-4.432-0.044-4.832,3.071-5.546,6.215c-2.048-0.924-0.659-3.141-1.798-4.308c-0.734-4.636-5.708-5.512-7.876-8.877
		c1.735-2.495,3.422-2.717,6.778-2.3c2.682,0.334,6.054,0.426,9.108,0.387C52.257,88.842,65.029,88.9,77.8,88.97
		c2.38,0.013,4.598-0.161,6.455-1.852c1.298,1.716-1.346,1.953-0.84,3.813c3.192-3.784,6.705-3.007,10.261-0.95
		c-0.597,3.79-4.006,5.108-6.405,7.305c-0.847,0.027-1.55,0.214-1.337,1.341C85.52,99.796,85.403,101.278,83.535,100.893z"/>
	<path fill="#707175" d="M109.543,29.944c-3.773-2.794-8.33-3.118-12.559-2.683c-2.988,0.307-5.752,0.441-8.611-0.273
		c-1.337-1.945-1.506-3.632,0.99-4.805c3.724-1.749,7.451-3.492,11.145-5.303c2.289-1.122,4.014-0.871,5.272,1.561
		c1.582,3.057,3.296,6.046,4.952,9.064C111.472,28.872,110.331,29.322,109.543,29.944z"/>
	<path fill="#797A7D" d="M29.482,71.782c1.535,2.857,5.483,0.687,7.107,3.624c-3.47,2.023-6.683,5.284-11.321,2.397
		C26.151,75.431,26.559,72.727,29.482,71.782z"/>
	<path fill="#818184" d="M27.533,109.882c0.011,0.343,0.021,0.686,0.032,1.029c-1.074,1.291-2.627,1.48-4.049,1.28
		c-5.425-0.763-7.891,2.656-9.961,6.743c-1.09,1.354-2.115,1.225-3.086-0.136c0.028-1.288,0.056-2.576,0.085-3.864
		c0.775-4.388,3.4-5.551,7.639-4.972C21.245,110.379,24.415,109.939,27.533,109.882z"/>
	<path fill="#777779" d="M52.549,68.938c-1.339,0.318-1.678,4.776-4.013,0.969c0.651-1.366,1.565-2.505,2.858-3.319
		C51.779,67.372,52.164,68.155,52.549,68.938z"/>
	<path fill="#727377" d="M109.543,29.944c0.397-0.813,0.793-1.625,1.19-2.439c1.264,0.186,2.528,0.372,3.793,0.558
		c-0.329,0.627-0.657,1.253-0.986,1.88C112.208,30.916,110.876,29.983,109.543,29.944z"/>
	<path fill="#C6C6C8" d="M13.719,105.635"/>
	<path fill="#C6C6C8" d="M13.54,107.838"/>
	<path fill="#FEFEFE" d="M86.59,97.026c2.362-2.348,4.725-4.696,7.087-7.044c4.092-2.947,8.183-5.894,12.275-8.841
		c3.663-1.666,7.326-3.332,10.989-4.998c14.017-4.17,28.132-4.48,42.341-1.084c8.841,3.374,17.346,7.384,24.906,13.179
		c0,0,0.107-0.069,0.107-0.069c1.802,0.813,3.641,1.586,4.104,3.833c2.37,2.647,4.739,5.294,7.109,7.942
		c0.978,1.342,1.957,2.684,2.935,4.026c1.18,0.665,2.148,1.467,1.959,3.021c0.12,0.766,0.039,1.63,0.979,1.993
		c2.063,4.649,4.126,9.299,6.188,13.948c-0.273,1.806,0.642,3.352,1.098,4.998c0.349,2.333,0.699,4.666,1.048,6.998
		c0.244,3.001,0.488,6.002,0.731,9.004c0.37,0.335,0.573,0.748,0.588,1.251c-0.241,1.898-0.278,3.809-0.28,5.722
		c-0.01,0.727-0.094,1.446-0.229,2.159c-0.507,1.843-0.743,3.743-1.141,5.609c-0.392,1.349-0.689,2.724-1.056,4.082
		c-0.348,1.117-0.705,2.232-1.062,3.348c-1.035,2.361-1.309,5.16-3.814,6.68c-1.98,3.361-3.959,6.721-5.939,10.081
		c-0.684,0.953-1.368,1.907-2.052,2.86c-3.645,3.73-7.289,7.46-10.933,11.19c-1.566,3.919-5.448,5.094-8.529,7.223
		c-4.38,2.976-9.207,4.974-14.241,6.519c-1.54,0.476-3.075,0.979-4.648,1.344c-1.546,0.192-2.982,1.073-4.612,0.766
		c-1.32,0.074-2.64,0.149-3.96,0.223c-7.002-0.266-14.041,0.296-21-0.94c-5.339-1.682-10.678-3.365-16.016-5.048
		c-4.647-0.235-8.038-2.745-10.984-6.062c-1.667-1.281-3.335-2.561-5.002-3.842c-2.309-2.118-4.617-4.236-6.926-6.354
		c-2.989-3.955-5.977-7.91-8.966-11.865c-1.301-0.674-1.666-1.92-1.96-3.208c-1.048-2.237-2.097-4.475-3.145-6.712
		c-2.448-7.166-3.848-14.571-5.015-22.028c0.294-5,0.588-10,0.882-15c0.75-3.321,2.037-6.531,2.089-9.998
		c-0.643-3.845,1.13-6.652,3.884-9.038c2.386-4,4.772-8,7.158-12c0.731-0.964,1.463-1.927,2.194-2.891
		C85.844,97.525,86.139,97.207,86.59,97.026z"/>
	<path fill="#909194" d="M203.452,172.781c0.967-2.315,1.935-4.631,2.902-6.946c1.568,1.963,1.606,1.994,3.898-0.735
		c1.033-1.229,2.4-1.799,3.825-2.181c7.884-2.112,15.937-2.746,24.076-2.591c2.4,3.316-0.626,4.265-2.485,5.729
		c-0.433,0.215-0.891,0.374-1.36,0.489c-3.098,0.128-5.548,2.091-8.372,3.004c-0.435,0.166-0.883,0.283-1.338,0.378
		c-5.513-0.517-10.327,1.602-15.068,3.997C207.249,174.899,205.015,175.619,203.452,172.781z"/>
	<path fill="#929396" d="M266.523,159.929c-3.074-0.86-3.921,2.504-6.259,3.274c-9.205,3.032-18.641,6.006-27.961,7.653
		c-7.222,1.277-14.19,4.732-21.773,4.07c1.617-3.588,5.203-3.875,8.319-4.772c2.157-0.621,4.547-0.271,6.68-1.228
		c3.06-0.819,6.191-1.425,8.999-3c9.411-1.242,17.875-5.766,27.055-7.821C263.306,158.505,266.51,154.906,266.523,159.929z"/>
	<path fill="#909194" d="M266.523,159.929c-0.935-3.989-3.361-0.526-4.999-1c-4.708,0.632-9.163,2.42-13.863,3.068
		c-2.134,0.294-4.326,0.639-6.134-1.068c3.279-3.772,13.775-6.693,18.098-4.92c1.571,0.644,3.02,1.174,4.72,0.518
		c2.268-0.874,2.931,0.528,3.18,2.405C267.271,159.345,268.015,160.759,266.523,159.929z"/>
	<path fill="#929395" d="M225.528,168.927c-3.126,2.253-7,2.148-10.453,3.349c-1.641,0.571-3.384,1.165-4.545,2.65
		c-0.333-0.333-0.667-0.666-1-0.999c1.883-3.06,5.107-4.143,8.226-4.88C220.219,168.466,222.928,168.928,225.528,168.927z"/>
	<path fill="#8A8B8E" d="M209.607,152.915c0.03-0.68,0.06-1.36,0.09-2.04c0.874-1.998-0.192-4.227,0.741-6.218
		c-0.156-0.244-0.154-0.486,0.008-0.726c3.937,0.987,7.694,1.37,10.864-2.083c0.659-0.718,2.122-1.031,3.188-0.98
		c3.819,0.183,7.092-0.746,10.498-2.725c5.222-3.035,11.069-2.175,16.576-0.41c1.779,0.57,3.468-2.701,4.937,0.187
		c-0.224,1.69,0.682,3.603-0.987,5.009c-1.873,3.344-4.746,3.965-8.425,3.861c-7.955-0.225-15.905,0.529-23.854,0.939
		c-3.161,0.163-5.608,1.913-8.21,3.369C213.345,152.043,211.878,153.692,209.607,152.915z"/>
	<path fill="#8D8E91" d="M207.423,162.737c0.157-1.329-0.111-2.777,1.068-3.821c1.401-4.39,5.063-6.212,9.022-6.653
		c12.795-1.424,25.249-4.791,38.01-6.333c-0.077,3.271-5.583,8.227-9.998,8.999c-8.784,4.121-18.258,4.208-27.653,4.603
		c-2.544,0.107-4.357,1.332-6.277,2.665c-1.254,0.87-2.32,2.578-4.268,1.402c-0.085-0.051-0.11-0.271-0.092-0.403
		C207.258,163.037,207.357,162.89,207.423,162.737z"/>
	<path fill="#8C8D8F" d="M255.523,145.93c-10.509,3.719-21.441,5.658-32.443,6.832c-5.698,0.608-10.613,1.981-14.589,6.154
		c0.075-2.055-0.411-4.215,1.116-6.001c2.769-0.784,4.867-2.88,7.077-4.417c3.276-2.277,6.718-2.614,10.111-2.445
		c7.59,0.378,15.172-1.983,22.635-0.363c3.328,0.722,3.195-3.946,6.093-2.76C256.141,143.93,256.146,144.93,255.523,145.93z"/>
	<path fill="#8F9092" d="M207.423,162.737c0.403,0.15,1.096,0.514,1.166,0.418c4.119-5.582,10.215-4.987,16.061-5.242
		c2.895-0.126,6.088,0.901,8.372-1.929c4.479,3.336,8.138-3.046,12.503-1.055c-1.443,2.556-5.658,2.34-5.999,5.999
		c-0.333,0.355-0.666,0.355-1,0.001c-7.95,1.359-16.164,0.746-23.964,3.15c-1.929,0.594-4.513,0.809-4.036,3.973
		c-1.735-0.334-2.688,0.852-3.442,2.152c-1.408-1.508,0.765-3.143-0.73-4.367C206.499,164.73,206.418,163.546,207.423,162.737z"/>
	<path fill="#929395" d="M238.527,160.928c0.333,0,0.667,0,1-0.001c0.667,0,1.333,0,2,0.001c5.847,1.31,11.078-1.766,16.661-2.315
		c1.091-0.107,2.224,0.199,3.337,0.315c-0.812,1.848-2.454,1.786-4.138,2.064c-4.026,0.666-7.858,1.608-11.59,3.77
		c-3.174,1.839-7.317,2.685-11.268,1.165C235.887,164.283,238.559,163.687,238.527,160.928z"/>
	<path fill="#8E8F91" d="M77.682,175.669c1.044,0.831,1.678,1.912,1.959,3.208c-3.372,3.732-7.344,5.029-12.569,5.297
		c-8.068,0.415-16.126,0.651-24.199,0.783c-3.621,0.059-7.13-0.076-10.321-2.031c0.459-1.19,1.286-2.198,0.429-3.703
		c-1.159-2.035,0.074-3.397,2.841-3.387c7.475,0.028,14.961-0.181,22.421,0.164c6.073,0.28,12.417-3.191,18.268,1.106
		C76.536,177.125,77.276,176.17,77.682,175.669z"/>
	<path fill="#898A8D" d="M68.796,168.149c0.257,0.609,0.563,1.002,0.557,1.39c-0.011,0.734-0.514,1.148-1.194,0.767
		c-0.27-0.152-0.423-0.822-0.344-1.196C67.884,168.79,68.358,168.555,68.796,168.149z"/>
	<path fill="#9D9DA0" d="M152.496,212.764c0.997-1.368,2.435-1.677,4.005-1.671c2.128,1.532,3.987,1.965,4.957-1.218
		c4.713-2.235,9.425-4.471,14.138-6.706c1.1-0.311,0.119,3.026,2.713,1.132c3.232-2.359,7.619-0.103,11.562-1.272
		c2.944-0.873,6.138-1.285,9.162-2.2c8.838-1.441,17.263-4.489,25.913-6.655c6.088-1.524,11.881-4.182,18.201-4.901
		c0.517,0.095,0.976,0.315,1.379,0.653c1.381,1.765,3.63-0.821,5,0.999c-2.483,3.565-6.91,3.309-10.225,4.015
		c-7.216,1.536-13.989,4.535-20.959,6.098c-13.009,2.917-25.296,9.099-38.431,10.144c-9.629,0.765-15.703,8.023-24.423,9.596
		c-0.431,0.078-0.638,1.4-0.95,2.143c-0.561,0.705-1.336,1.009-2.183,1.18c-7.72-0.391-14.807,1.054-22.141,4.178
		c-6.12,2.606-13.047,5.003-20.246,4.066c-2.577-0.335-4.826,1.228-7.278,1.407c-2.724,0.198-5.623,1.246-8.144-0.833
		c5.38-5.493,12.541-6.4,19.546-6.85c5.569-0.358,10.76-1.147,15.761-3.738c4.928-2.554,10.676-1.688,15.921-3.214
		C149.287,218.094,151.664,216.38,152.496,212.764z"/>
	<path fill="#9E9FA1" d="M94.545,232.919c9.772-1.638,19.667-1.648,29.425-4.496c9.21-2.688,18.22-8.172,28.567-5.503
		c-0.276,3.787-3.762,4.79-6.153,5.373c-8.881,2.168-17.735,4.558-26.792,5.976c-9.98,0.722-19.82,2.066-28.956,6.52
		c-1.321,1.328-2.744-0.552-4.091,0.128c-1.666-0.333-3.333-0.667-4.999-1C85.099,236.136,89.6,234.116,94.545,232.919z"/>
	<path fill="#A6A6A9" d="M208.53,222.92c-3.723,5.449-10.015,6.052-15.527,7.773c-4.058,1.267-8.381,1.744-12.293,3.614
		c-2.136,1.021-4.179,0.71-6.177-0.389c8.47-4.558,17.583-7.436,26.687-10.379C203.684,222.744,206.096,223.104,208.53,222.92z"/>
	<path fill="#A4A4A6" d="M164.536,232.919c3.239-4.954,9.13-4.608,13.779-6.633c4.114-1.792,8.79-2.294,13.217-3.365
		c-4.873,4.187-11.142,5.188-16.979,6.779C171.143,230.629,168.35,233.445,164.536,232.919z"/>
	<path fill="#A6A6A9" d="M213.53,218.921c1.157,0.572,2.242,1.202,3.499,0.043c1.315-1.214,1.939-0.087,2.5,0.957
		c-1.98,4.059-5.948,2.153-8.999,3C211.53,221.587,212.53,220.254,213.53,218.921z"/>
	<path fill="#A4A4A6" d="M192.532,222.92c2.301-3.096,5.676-2.969,8.999-3C198.565,221.019,195.969,223.232,192.532,222.92z"/>
	<path fill="#A4A4A6" d="M156.537,235.919c0.756-1.821,2.286-2.093,3.999-2C159.78,235.74,158.25,236.012,156.537,235.919z"/>
	<path fill="#959699" d="M100.536,200.938c3.661,2.021,7.323,4.041,10.984,6.062c-1.364,1.291-2.042,2.747-4.815,2.715
		c-5.36-0.062-10.753,0.74-16.16,0.207c-1.955-1.22-4.236-1.451-6.259-0.889c-11.082,3.076-22.421,2.762-33.734,2.889
		c-0.001-1.333-0.001-2.667-0.002-4c9.243-1.409,18.622-0.281,27.821-1.234c6.283-0.651,12.387-3.092,18.907-2.934
		C98.814,203.792,99.82,202.319,100.536,200.938z"/>
	<path fill="#818184" d="M69.548,123.933c-0.333,0.333-0.666,0.666-1,1c-1.08-4.141-3.643-5.234-7.928-5.124
		c-13.29,0.341-26.595,0.149-39.894,0.095c-1.746-0.007-3.7,0.666-5.172-0.971c1.94-6.992,2.678-7.569,9.839-7.479
		c11.248,0.142,22.523,0.467,33.735-0.128C67.619,110.875,70.389,115.923,69.548,123.933z"/>
	<path fill="#808182" d="M69.548,123.933c-0.1-3.15-2.593-5.519-2.611-8.845c-0.012-2.238-2.462-2.174-4.352-2.167
		c-8.649,0.03-17.298,0.035-25.948,0.002c-3.139-0.012-6.231-0.204-9.382-0.716c-4.418-0.718-9.224-0.884-10.245,5.462
		c-0.078,0.487-0.952,0.846-1.456,1.264c-0.668-3.382-1.333,0.615-2,0.001c1.339-6.627,2.894-7.989,9.124-7.998
		c1.629-0.002,3.257-0.016,4.886-0.025c9.771-2.283,19.674-0.583,29.509-0.903c5.311-0.173,10.929-1.108,15.388,3.409
		c0.902,0.914,2.34-1.96,3.915-0.524c-1.295,3.013-2.589,6.025-3.884,9.038C71.07,121.949,70.096,122.628,69.548,123.933z"/>
	<path fill="#A0A0A3" d="M86.546,240.918c1-1.592,2-0.264,3,0c6.427-2.728,13.168-4.339,20.05-5.257
		c3.478-0.464,6.771-1.317,9.946-2.742c6.639-2.079,13.714-2.019,20.33-4.53c4.325-1.641,9.382-1.413,12.666-5.469
		c0.667,0,1.333,0,2,0c6.727-2.066,13.648-3.67,20.1-6.389c3.298-1.39,6.657-2.059,9.93-2.387c4.352-0.436,8.489-1.145,12.306-3.184
		c1.557-0.832,2.07-0.178,2.659,0.96c-2.006,1.857-4.311,2.955-7.102,3.031c-0.956,0.026-2.38,0.07-2.778,0.656
		c-3.614,5.335-9.793,2.568-14.075,4.596c-7.032,3.33-15.409,1.249-21.896,6.622c-2.097,1.737-5.166,3.238-8.143,4.093
		c-12.996,2.885-25.669,7.074-38.613,10.016c-5.473,1.244-11.012,2.243-16.381,3.981c-1-0.974-1.999,0.741-2.999,0.001
		C87.404,243.537,88.01,241.969,86.546,240.918z"/>
	<path fill="#9E9FA2" d="M87.545,244.918c1,0.331,1.998-3.076,2.999-0.001C89.545,245.18,88.546,246.511,87.545,244.918z"/>
	<path fill="#A9A9AC" d="M133.54,256.916c5.218-3.291,10.847-5.785,16.36-8.513c6.176-3.057,12.987-4.468,19.4-6.695
		c6.564-2.279,13.502-3.971,19.988-6.68c4.953-2.069,9.767-3.878,15.219-4.552c3.08-0.381,5.67-3.842,8.808-5.089
		c1.204-0.479,5.019-3.826,5.214,1.535c-10.246,4.319-20.291,9.103-31.13,11.955c-5.815,1.53-11.298,4.043-16.772,6.716
		c-5.632,2.751-12.213,3.49-18.206,5.6c-3.564,1.255-8.049,1.332-9.883,5.725C139.539,257.605,136.539,257.605,133.54,256.916z"/>
	<path fill="#717276" d="M220.528,58.942c0.095,0.785,0.19,1.569,0.404,3.343c-1.938-1.975-2.675-3.421-2.194-5.631
		C219.415,57.519,219.972,58.23,220.528,58.942C220.528,58.942,220.528,58.942,220.528,58.942z"/>
	<path fill="#808184" d="M200.401,106.989c-0.653-1.007-1.306-2.014-1.959-3.021C199.954,104.419,202.495,104.201,200.401,106.989z"
		/>
	<path fill="#797A7D" d="M188.399,92.001c-1.367-1.279-2.734-2.557-4.102-3.834c2.772,0.937,5.484-0.335,8.235-0.23
		C191.154,89.292,189.777,90.646,188.399,92.001z"/>
	<path fill="#707175" d="M176.534,21.946c-2.934-0.567-0.386-1.998-0.156-3.038c0.052,1.012,0.105,2.025,0.157,3.037
		C176.535,21.945,176.534,21.946,176.534,21.946z"/>
	<path fill="#9A9B9D" d="M244.525,189.926c-0.333-0.001-0.666-0.001-0.999-0.001c-5.067-2.097-9.82,0.248-14.306,1.728
		c-4.175,1.377-8.189,3.061-12.569,4.016c-6.236,1.36-11.988,4.413-18.119,6.254c-5.573,2.164-11.226,3.808-17.281,2.377
		c-1.113-0.263-2.018,0.129-2.727,0.756c-0.706,0.625-0.505,2.198-2.357,1.251c-1.934-0.988,0.904-2.372-0.57-3.139
		c2.977-2.085,5.954-4.171,8.931-6.256c0.776,1.223,0.992,3.69,3.274,1.273c2.282-2.416,4.621-2.936,8.379-2.715
		c5.44,0.321,11.131-1.281,16.68-2.964c5.675-1.722,10.619-5.564,16.863-5.652c3.21-0.045,6.297-0.497,9.086-2.941
		c3.545-3.106,4.597,0.449,5.716,3.011C244.526,187.925,244.525,188.926,244.525,189.926z"/>
	<path fill="#B0B1B3" d="M188.533,254.917c-0.828,1.145-2.127,1.989-3.343,1.835c-3.374-0.427-5.131,1.645-6.803,3.89
		c-1.882,2.527-3.044,2.045-3.852-0.725C176.154,254.865,183.351,252.294,188.533,254.917z"/>
	<path fill="#757679" d="M41.55,76.933c0.667,0.335,1.335,0.671,2.002,1.006c-1.09,1.326-2.334,1.353-3.182-0.059
		C39.9,77.097,40.968,77.05,41.55,76.933z"/>
	<path fill="#7A7B7C" d="M88.282,89.716c-0.965,2.296-2.595,3.21-2.89,4.879C84.219,92.098,85.647,91.07,88.282,89.716z"/>
	<path fill="#7A7B7C" d="M86.59,97.026c-0.287,0.325-0.574,0.651-0.86,0.976c-0.757-0.283-2.341-0.13-1.423-1.534
		C84.949,95.487,85.972,96.17,86.59,97.026z"/>
	<path fill="#9A9A9D" d="M161.458,209.875c1.671,0.963,0.27,2.295,0.412,3.441c-1.943,0.006-3.918,0.21-5.808-0.103
		c-0.575-0.095,0.167-1.398,0.439-2.12C158.154,210.687,159.806,210.281,161.458,209.875z"/>
	<path fill="#8C8D8F" d="M210.438,144.657c-0.141,2.086,0.804,4.301-0.741,6.219C209.622,148.764,209.323,146.626,210.438,144.657z"
		/>
	<path fill="#929395" d="M234.527,165.927c-1.945,4.163-5.747,2.755-8.999,3C228.429,167.631,230.749,164.592,234.527,165.927z"/>
	<path fill="#9C9C9F" d="M198.532,201.923c2.96-4.076,8.107-3.756,12.102-5.761c5.707-2.865,12.604-2.582,18.445-5.866
		c2.689-1.512,6.139-1.789,9.296-2.307c1.914-0.314,4.092-0.438,5.151,1.936c-6.195,2.308-12.801,3.268-18.905,5.917
		c-5.138,2.231-11.045,1.632-16.143,4.1C205.321,201.47,202.078,202.423,198.532,201.923z"/>
	<path fill="#9E9FA2" d="M119.541,232.919c-0.543,1.347-1.686,2.136-2.959,2.408c-9,1.919-18.022,3.739-27.037,5.591
		c0.685-1.546,1.465-2.877,3.385-3.268C101.763,235.855,110.382,232.875,119.541,232.919z"/>
</g>
</svg>
