<?xml version="1.0" encoding="utf-8"?>
<!-- Generator: Adobe Illustrator 17.0.0, SVG Export Plug-In . SVG Version: 6.00 Build 0)  -->
<!DOCTYPE svg PUBLIC "-//W3C//DTD SVG 1.1//EN" "http://www.w3.org/Graphics/SVG/1.1/DTD/svg11.dtd" [
	<!ENTITY ns_flows "http://ns.adobe.com/Flows/1.0/">
	<!ENTITY ns_extend "http://ns.adobe.com/Extensibility/1.0/">
	<!ENTITY ns_ai "http://ns.adobe.com/AdobeIllustrator/10.0/">
	<!ENTITY ns_graphs "http://ns.adobe.com/Graphs/1.0/">
]>
<svg version="1.1" id="Layer_1" xmlns:x="&ns_extend;" xmlns:i="&ns_ai;" xmlns:graph="&ns_graphs;"
	 xmlns="http://www.w3.org/2000/svg" xmlns:xlink="http://www.w3.org/1999/xlink" xmlns:a="http://ns.adobe.com/AdobeSVGViewerExtensions/3.0/"
	 x="0px" y="0px" width="219.6px" height="221.1px" viewBox="0 0 219.6 221.1" enable-background="new 0 0 219.6 221.1"
	 xml:space="preserve">
<g>
	<path fill="#3960A3" d="M109.2,221.1C47.9,220.8-0.3,171.6,0,109.7C0.3,48.9,49.8-0.4,110.2,0C171.1,0.4,220,50,219.6,110.6
		C219.1,172.5,170.4,221.3,109.2,221.1z"/>
	<g>
		<path fill="#FFFFFF" d="M169.3,68.5c-1.6,0.4-3.3,0.8-4.9,1.3c-1,0.3-1.9,0.9-3.1,1.5c0-2.5,0-4.8,0-7.1c0-2.6-1.2-3.7-3.8-3.7
			c-31.9,0-63.7,0-95.6,0c-2.6,0-3.8,1.2-3.8,3.7c0,22,0,43.9,0,65.9c0,2.6,1.1,3.8,3.7,3.8c11,0,22.1,0,33.1,0c0.4,0,0.8,0,1.5,0
			c-1,1.6-1.5,3.1-3.5,3.8c-2.6,0.9-5,2.4-7.5,3.6c-0.6,0.3-1.2,0.6-1.8,0.6c-7.8,0-15.6,0-23.5,0c-4.9,0-8.4-2.8-9.7-7.6
			c0-0.1-0.1-0.3-0.2-0.4c0-24.4,0-48.8,0-73.2c2.5-6.5,4.8-8.1,11.9-8.1c32,0,64,0,96,0c6.2,0,9.1,2.1,11,8c0,0,0.1,0.1,0.1,0.1
			C169.3,63.2,169.3,65.8,169.3,68.5z"/>
		<path fill="#FFFFFF" d="M169.3,71.3c-2.3,7-6.6,12.8-10.9,18.5C146,106.1,132,121,116.2,134c-4.3,3.5-8.8,6.7-13.8,9.2
			c-0.3,0.2-0.6,0.6-0.7,0.9c-0.4,4.2-2.3,7.8-5,11c-1.7,2-3.5,4-5.3,5.8c-3.3,3.2-7.4,4.7-11.8,5.4c-2.4,0.4-4.9,0.6-7.6,0.9
			c15.3,0,30.4,0,45.6,0c0,0.7,0,1.3,0,2.1c-0.5,0-0.9,0-1.4,0c-21.5,0-42.9,0-64.4,0c-0.5,0-1.1,0-1.6,0c0-0.7,0-1.4,0-2.1
			c3.9,0,7.7,0.1,11.6,0c0.9,0,1.9-0.4,2.8-0.8c3.3-1.3,5.9-3.6,7.9-6.4c1.8-2.6,3.4-5.3,5.1-7.9c2.3-3.6,5-7,8.7-9.4
			c2.7-1.8,5.6-3.2,8.8-4.1c0.4-0.1,1-0.4,1.2-0.7c3.1-5.8,7.2-10.8,11.4-15.8c13.2-15.3,27.5-29.5,43.6-41.8
			c4-3.1,8.4-5.8,12.8-8.4c1.5-0.9,3.4-1.2,5.1-1.8C169.3,70.6,169.3,70.9,169.3,71.3z M99.8,140c-7.5,0.4-18,7.3-19.7,12.7
			c0.3,0.1,0.6,0.2,0.9,0.3c0.4,0.1,0.8,0.2,1.2,0.3c5.4,1,10.3-0.5,15.1-2.8c0.2-0.1,0.5-0.3,0.6-0.5
			C99.6,146.8,100.1,143.5,99.8,140z"/>
		<path fill="#FFFFFF" d="M169.3,133.5c-0.1,0.2-0.2,0.4-0.2,0.5c-1.2,4.8-4.8,7.6-9.7,7.6c-8,0-16,0-24,0c-0.5,0-1,0-1.5,0
			c-1.2,5.6,7.1,13.7,13.6,14c0,0.6,0,1.2,0,1.8c-16.6,0-33.1,0-49.9,0c0.3-0.4,0.5-0.7,0.8-1c2.6-3.3,4.6-6.9,5.3-11.1
			c0-0.3,0.3-0.7,0.6-0.9c5.3-2.8,10.1-6.5,14.8-10.2c0.4-0.3,1.1-0.5,1.7-0.5c12.3,0,24.6,0,36.8,0c2.8,0,3.9-1.1,3.9-3.9
			c0-13.2,0-26.5,0-39.7c0-0.5,0.1-1.2,0.4-1.6c2.4-3.8,4.8-7.6,7.2-11.4c0.1-0.1,0.2-0.2,0.3-0.3
			C169.3,95.7,169.3,114.6,169.3,133.5z"/>
	</g>
</g>
</svg>
