<?xml version="1.0" encoding="utf-8"?>
<!-- Generator: Adobe Illustrator 17.0.0, SVG Export Plug-In . SVG Version: 6.00 Build 0)  -->
<!DOCTYPE svg PUBLIC "-//W3C//DTD SVG 1.1//EN" "http://www.w3.org/Graphics/SVG/1.1/DTD/svg11.dtd" [
	<!ENTITY ns_flows "http://ns.adobe.com/Flows/1.0/">
	<!ENTITY ns_extend "http://ns.adobe.com/Extensibility/1.0/">
	<!ENTITY ns_ai "http://ns.adobe.com/AdobeIllustrator/10.0/">
	<!ENTITY ns_graphs "http://ns.adobe.com/Graphs/1.0/">
]>
<svg version="1.1" id="Layer_1" xmlns:x="&ns_extend;" xmlns:i="&ns_ai;" xmlns:graph="&ns_graphs;"
	 xmlns="http://www.w3.org/2000/svg" xmlns:xlink="http://www.w3.org/1999/xlink" xmlns:a="http://ns.adobe.com/AdobeSVGViewerExtensions/3.0/"
	 x="0px" y="0px" width="219.6px" height="221.1px" viewBox="0 0 219.6 221.1" enable-background="new 0 0 219.6 221.1"
	 xml:space="preserve">
<g>
	<path fill="#FEFEFE" d="M-2.1,223.7c0-75,0-150,0-225c73.7,0,147.3,0,221-0.1c3.4,0,4.1,0.7,4.1,4.1c-0.1,72.3-0.1,144.7,0,217
		c0,3.4-0.7,4.1-4.1,4.1C145.2,223.7,71.5,223.7-2.1,223.7z"/>
	<path fill="#3960A3" d="M109.2,221.1C47.9,220.8-0.3,171.6,0,109.7C0.3,48.9,49.8-0.4,110.2,0C171.1,0.4,220,50,219.6,110.6
		C219.1,172.5,170.4,221.3,109.2,221.1z"/>
	<path fill="#FEFEFD" d="M109.6,142.7c-6.5,0-13-0.1-19.5,0c-2.3,0-3.6-0.5-4.3-3c-1-3.4-3.4-6-6.1-8.4
		c-15.7-13.6-20.5-35.2-12.1-54c8-17.9,27.8-29.6,46.4-27.2c21.6,2.7,38.3,17.7,41.5,38.6c2.5,16.4-2.3,30.6-14.7,42
		c-2.4,2.1-5.1,4.1-6,7.2c-1.2,4.6-4.2,5.1-8.2,4.9C120.9,142.5,115.3,142.7,109.6,142.7z"/>
	<path fill="#FEF8E6" d="M109.8,152.8c-6.7,0-13.3,0-20,0c-1.2,0-2.9,0.5-3-1.6c-0.1-2.3,1.7-2.1,3.1-2.1c13.3,0,26.6,0,40,0
		c1.5,0,3.3-0.1,3,2.2c-0.2,2.1-2,1.4-3.1,1.4C123.1,152.8,116.4,152.8,109.8,152.8z"/>
	<path fill="#FEFEFE" d="M109.5,162.8c-6.5,0-13,0-19.5,0c-1.3,0-3.4,0.7-3.2-1.8c0.1-2,1.9-1.5,3.1-1.5c13.3,0,26.6,0,39.9,0
		c1.2,0,2.9-0.5,3,1.6c0.1,2.2-1.7,1.7-2.9,1.7C123.1,162.9,116.3,162.8,109.5,162.8z"/>
	<path fill="#FEFEFD" d="M109.9,169.7c4.5,0,9,0,13.4,0c1.2,0,2.4,0,2.3,1.8c-0.1,1.3-1.1,1.5-2.1,1.5c-9.1,0-18.3,0-27.4,0
		c-1,0-2-0.2-2-1.6c-0.1-1.8,1.2-1.7,2.4-1.7C100.9,169.7,105.4,169.7,109.9,169.7z"/>
	<path fill="#3960A3" d="M109.7,138.7c-6.7,0-14.9,2.4-19.5-0.7c-4.8-3.2-9-9.4-13.2-14.4C64.9,109.1,63.7,88.7,73.9,73
		c10.3-15.7,29.8-23.1,47.5-17.9c18.3,5.4,31.1,21.8,31.1,40.6c0,12.6-4.6,23.4-13.8,32c-1.7,1.6-4.2,3-4.8,4.9
		c-2.4,6.8-7.6,6.6-13.2,6.3c-3.7-0.2-7.3,0-11,0C109.7,138.9,109.7,138.8,109.7,138.7z"/>
	<path fill="#FEFEFE" d="M109.8,111.8c-7.8-0.4-15.6-0.9-23-3.9c-2-0.8-4.5-1.7-3.9-4.4c0.6-2.6,3.3-1.9,5.1-1.5
		c2.7,0.5,3.2-0.5,3-2.9c-0.1-1.5,0-3,0-4.5c0-10.4,3.9-14.8,14.2-16.2c3.3-0.4,6.6-0.4,10,0.1c9.7,1.4,13.6,5.9,13.6,15.7
		c0,1.3,0.1,2.7,0,4c-0.2,2.7,0.1,4.5,3.6,3.7c1.6-0.4,4-0.8,4.5,1.7c0.5,2.2-1.5,3.2-3.2,3.9C126,110.8,117.9,111.4,109.8,111.8z"
		/>
</g>
</svg>
