<?xml version="1.0" encoding="utf-8"?>
<!-- Generator: Adobe Illustrator 17.0.0, SVG Export Plug-In . SVG Version: 6.00 Build 0)  -->
<!DOCTYPE svg PUBLIC "-//W3C//DTD SVG 1.1//EN" "http://www.w3.org/Graphics/SVG/1.1/DTD/svg11.dtd">
<svg version="1.1" id="Layer_1" xmlns="http://www.w3.org/2000/svg" xmlns:xlink="http://www.w3.org/1999/xlink" x="0px" y="0px"
	 width="1920px" height="1920px" viewBox="0 0 1920 1920" enable-background="new 0 0 1920 1920" xml:space="preserve">
<path fill="#FFCF06" d="M949.4,812.6c9.8-2.7,19.8-0.5,29.5,1.3c21.3,4.5,40.7,17.2,53.4,34.8c11.7,16.1,17.9,36.3,16,56.2
	c-1.1,9.1-3.4,18-6.9,26.4c-6.3,15.9-16.1,30.1-23.9,45.2c-7.5,14-9.1,30.1-12.5,45.4c-1.1,4.4-2.4,9-5.8,12.2
	c-4,3.7-9.9,4.6-15.2,4.7c-16,0-32,0-48,0c-5.8-0.1-12.2-1.2-16.2-5.8c-3.1-3.8-4.2-8.8-5.3-13.4c-2.2-11-4-22.1-7.5-32.8
	c-3.5-9.6-8.8-18.3-13.9-27c-10.8-18.3-20.9-38.1-21.8-59.7c-0.5-22.4,8.4-44.7,23.9-60.7C909.5,824.4,929,814.9,949.4,812.6z"/>
<path fill="#FFFFFF" d="M936.5,842.5c3.8-0.6,7.8-0.9,11.4,0.6c4.9,1.9,7.8,7.6,6.7,12.7c-1.3,4.7-5.4,7.8-9.2,10.5
	c-8.6,5.9-18.1,10.9-24.9,19.1c-6.6,8.2-11.4,18.2-12.8,28.7c-0.7,3.4-0.1,7.1-1.6,10.2c-2.1,0.9-3.1-2.1-4.1-3.4
	c-5.3-11.5-6.3-24.7-3.9-37.1C902.2,864.7,917.1,847.3,936.5,842.5z"/>
<path fill="#23B1A5" d="M924.2,1048.3c22.9-0.4,45.9-0.4,68.8-0.4c3.5-0.4,6.5,2.6,6.4,6.1c0,4.3,0.5,8.7-0.3,12.9
	c-1.1,3.4-5.3,3.2-8.2,2.7c-22-3.1-44-5.7-65.9-9.3C918.9,1060,919.5,1050.4,924.2,1048.3z"/>
<path fill="#B9B309" d="M922.4,1068.6c1.9-1.3,4.3-1,6.5-0.8c22,3.1,44.2,5.7,66.1,9.3c6.9,0.4,5.3,12.4-1.1,12.3
	c-22,0.1-44,0.1-66,0.2c-2.5,0.1-5.5-0.4-6.5-3c-1.4-3.4-0.7-7.1-0.8-10.6C920.7,1073.5,920.2,1070.3,922.4,1068.6z"/>
<path fill="#F8981D" d="M934.1,1098.9c-0.8-2.4,2.1-3.3,3.9-3.1c14.7,0,29.4,0,44.1,0c1.8-0.2,3.5,0.7,4.5,2.2
	c-2.9,5.3-7.7,9.1-12.5,12.5c-9.3,0.2-18.7,0.2-28.1,0C941.5,1107.2,937.1,1103.7,934.1,1098.9z"/>
</svg>
