<?xml version="1.0" encoding="utf-8"?>
<!-- Generator: Adobe Illustrator 17.0.0, SVG Export Plug-In . SVG Version: 6.00 Build 0)  -->
<!DOCTYPE svg PUBLIC "-//W3C//DTD SVG 1.1//EN" "http://www.w3.org/Graphics/SVG/1.1/DTD/svg11.dtd">
<svg version="1.1" id="Layer_1" xmlns="http://www.w3.org/2000/svg" xmlns:xlink="http://www.w3.org/1999/xlink" x="0px" y="0px"
	 width="334.179px" height="158px" viewBox="0 0 334.179 158" enable-background="new 0 0 334.179 158" xml:space="preserve">
<g>
	<path fill="#980F0F" d="M61.003,152.184H53.45l-10.751-34.023l-10.887,34.023h-7.893l-13.405-47.632h8.37l9.798,35.86
		l11.023-35.588h5.988l11.363,34.907l9.526-35.18h8.37L61.003,152.184z"/>
	<polygon fill="#FFFFFF" points="54.868,150.333 42.71,111.861 30.399,150.333 25.384,150.333 13.068,106.333 17.406,106.333 
		28.565,147.037 41.131,106.333 44.288,106.333 57.227,146.216 68.064,106.333 72.37,106.333 59.554,150.333 	"/>
	<path fill="#980F0F" d="M80.802,152.184v-47.632h30.008v7.621H88.968v11.364h17.079v7.621H88.968v13.405h22.523v7.621H80.802z"/>
	<polygon fill="#FFFFFF" points="82.667,150.333 82.667,106.333 108.667,106.333 108.667,110.333 86.667,110.333 86.667,126.333 
		103.667,126.333 103.667,129.333 86.667,129.333 86.667,146.333 109.667,146.333 109.667,150.333 	"/>
	<path fill="#980F0F" d="M119.178,152.184v-47.632h12.18c11.023,0,18.168,1.701,18.168,12.112c0,4.219-0.885,7.281-4.015,10.071
		c5.784,2.245,8.233,5.648,8.233,11.364c0,11.432-8.914,14.085-16.875,14.085H119.178z M127.139,111.493v12.384h8.37
		c2.926,0,6.328-0.817,6.328-6.192c0-5.307-3.062-6.192-7.485-6.192H127.139z M127.139,130.409v14.834h8.029
		c6.26,0,10.275-1.429,10.275-7.281c0-5.92-3.947-7.553-8.914-7.553H127.139z"/>
	<path fill="#FFFFFF" d="M121.667,150.333v-44h9.692c12.34,0,16.102,2.49,16.102,10.188c0,4.058-0.901,6.44-3.323,8.6l-2.52,2.282
		l3.147,1.24c4.976,1.932,6.915,4.695,6.915,9.554c0,7.976-4.983,12.136-14.809,12.136H121.667z M124.667,147.333h10.502
		c3.375,0,12.341-0.017,12.341-9.364c0-4.388-1.905-9.636-10.98-9.636h-11.863V147.333z M124.667,126.333h10.842
		c7.304,0,8.394-5.416,8.394-8.5c0-8.258-6.693-8.5-9.551-8.5h-9.686V126.333z"/>
	<path fill="#980F0F" d="M158.37,128.368c0-15.038,9.935-24.769,23.612-24.769c4.899,0,10.003,1.157,13.405,2.79l-0.885,7.553
		c-3.879-1.429-7.621-2.79-12.52-2.79c-9.798,0-14.834,7.349-14.834,17.216c0,9.867,5.035,17.216,14.834,17.216
		c4.899,0,8.642-1.293,12.52-2.79l0.885,7.553c-3.47,1.701-8.506,2.79-13.405,2.79C168.305,153.137,158.37,143.406,158.37,128.368z"
		/>
	<path fill="#980F0F" d="M181.982,151.202c-12.966,0-21.677-9.176-21.677-22.834s8.711-22.834,21.677-22.834
		c3.887,0,8.088,0.773,11.316,2.054l-0.434,3.703c-3.198-1.118-6.627-2.074-10.883-2.074c-10.187,0-16.769,7.517-16.769,19.151
		s6.582,19.151,16.769,19.151c4.207,0,7.629-0.897,10.885-2.051l0.432,3.69C190.126,150.432,185.927,151.202,181.982,151.202z"/>
	<path fill="#980F0F" d="M234.716,152.184v-21.026h-23.816v21.026h-8.029v-47.632h8.029v18.917h23.816v-18.917h8.029v47.632H234.716
		z"/>
	<polygon fill="#980F0F" points="236.667,150.333 236.667,129.333 208.667,129.333 208.667,150.333 204.667,150.333 
		204.667,106.333 208.667,106.333 208.667,125.333 236.667,125.333 236.667,106.333 240.667,106.333 240.667,150.333 	"/>
	<path fill="#980F0F" d="M253.357,152.184v-47.632h30.008v7.621h-21.843v11.364h17.08v7.621h-17.08v13.405h22.523v7.621H253.357z"/>
	<polygon fill="#980F0F" points="255.667,150.333 255.667,106.333 281.667,106.333 281.667,110.333 259.667,110.333 
		259.667,126.333 276.667,126.333 276.667,129.333 259.667,129.333 259.667,146.333 281.667,146.333 281.667,150.333 	"/>
	<path fill="#980F0F" d="M299.763,112.173v11.364h16.399v7.621h-16.399v21.026h-8.029v-47.632h29.26v7.621H299.763z"/>
	<polygon fill="#980F0F" points="293.667,150.333 293.667,106.333 318.667,106.333 318.667,110.333 297.667,110.333 
		297.667,126.333 314.667,126.333 314.667,129.333 297.667,129.333 297.667,150.333 	"/>
</g>
<g>
	<path fill="none" stroke="#FFFFFF" stroke-width="4" stroke-miterlimit="10" d="M334.179,92.333c0-3.375-2.814-6-6.285-6h-11.669
		c-28.752-15-73.686-26.578-125.419-29c-3.039-11.097-13.441-20.111-25.812-20.111c-12.448,0-22.907,9.534-25.872,20.737
		C89.113,60.716,45.783,72.333,17.791,86.333H6.286c-3.471,0-6.286,2.625-6.286,6s2.814,6,6.286,6h321.608
		C331.365,98.333,334.179,95.709,334.179,92.333z M164.995,46.571c6.327,0,11.817,3.539,14.495,8.687
		c-4.125-0.1-8.286-0.153-12.482-0.153c-5.586,0-11.112,0.091-16.57,0.268C153.094,50.163,158.62,46.571,164.995,46.571z"/>
</g>
<g>
	<path fill="#FFFFFF" d="M71.364,72.792c-23.91,3.809-29.094,9.051-28.476,12.572c0.092,0.527,0.479,0.986,1.12,1.378
		c3.037-3.878,12.377-7.451,17.671-9.216c10.784-3.595,33.568-6.566,31.894-6.672C92.501,70.788,77.728,71.778,71.364,72.792z"/>
</g>
<g>
	<path fill="#980F0F" d="M317.737,4.851c-1.898,10.754-6.678,21.298-14.902,28.889c-4.217,3.796-31.912,16.659-27.694,24.461l0,0
		c-6.115-6.115-6.748-15.604-1.054-21.931C285.896,23.618,315.629,26.36,317.737,4.851"/>
	<g>
		<path fill="#980F0F" d="M317.432,4.767c-1.871,9.875-5.808,18.979-12.564,26.503c-3.489,3.886-8.372,6.191-12.783,8.855
			c-3.993,2.411-20.52,10.84-17.447,17.721c-2.406-5.388-5.027-8.982-3.649-15.254c1.006-4.578,4.663-7.784,8.438-10.148
			c5.557-3.479,12.115-5.262,18.225-7.503c9.849-3.613,19.007-8.768,20.402-20.089c0.05-0.404-0.583-0.399-0.633,0
			c-1.987,16.13-19.627,18.692-31.988,23.924c-5.672,2.401-11.025,5.364-14.047,10.944c-3.391,6.263-0.975,13.798,3.532,18.705
			c0.261,0.284,0.634-0.076,0.497-0.383c-2.258-5.056,6.444-10.43,9.674-12.689c4.46-3.118,9.217-5.793,13.867-8.61
			c11.029-6.681,16.765-19.558,19.086-31.807C318.118,4.536,317.508,4.366,317.432,4.767L317.432,4.767z"/>
	</g>
</g>
</svg>
