<?xml version="1.0" encoding="utf-8"?>
<!-- Generator: Adobe Illustrator 17.0.0, SVG Export Plug-In . SVG Version: 6.00 Build 0)  -->
<!DOCTYPE svg PUBLIC "-//W3C//DTD SVG 1.1//EN" "http://www.w3.org/Graphics/SVG/1.1/DTD/svg11.dtd">
<svg version="1.1" id="Layer_1" xmlns="http://www.w3.org/2000/svg" xmlns:xlink="http://www.w3.org/1999/xlink" x="0px" y="0px"
	 width="463px" height="217px" viewBox="0 0 463 217" enable-background="new 0 0 463 217" xml:space="preserve">
<g>
	<path fill="#980F0F" d="M89.044,205.509H78.916L64.5,159.297l-14.598,46.212H39.318l-17.974-64.697h11.223l13.138,48.708
		l14.781-48.338h8.029l15.237,47.414l12.773-47.783h11.223L89.044,205.509z"/>
	<polygon fill="#FFFFFF" points="80.817,203 64.516,150.744 48.008,203 41.284,203 24.77,143 30.586,143 45.549,198.787 62.398,144 
		66.631,144 83.98,197.671 98.511,143 104.285,143 87.1,203 	"/>
	<path fill="#980F0F" d="M115.591,205.509v-64.697h40.237v10.352H126.54v15.435h22.901v10.351H126.54v18.208h30.2v10.351H115.591z"
		/>
	<polygon fill="#FFFFFF" points="118,203 118,143 153,143 153,149 124,149 124,169 146,169 146,174 124,174 124,198 154,198 
		154,203 	"/>
	<path fill="#980F0F" d="M167.048,205.509v-64.697h16.332c14.781,0,24.361,2.311,24.361,16.452c0,5.73-1.186,9.889-5.383,13.679
		c7.755,3.05,11.04,7.671,11.04,15.435c0,15.527-11.952,19.132-22.627,19.132H167.048z M177.723,150.24v16.821h11.223
		c3.923,0,8.485-1.109,8.485-8.411c0-7.209-4.106-8.41-10.037-8.41H177.723z M177.723,175.934v20.148h10.766
		c8.394,0,13.777-1.941,13.777-9.889c0-8.041-5.292-10.259-11.953-10.259H177.723z"/>
	<path fill="#FFFFFF" stroke="#B7000E" stroke-miterlimit="10" d="M169.5,203.5v-60h13.88c16.477,0,21.766,3.329,21.766,13.794
		c0,5.57-1.224,8.73-4.515,11.702l-3.165,2.85l3.952,1.551c6.753,2.656,9.384,6.604,9.384,13.292
		c0,10.951-6.74,16.811-20.033,16.811H169.5z M175.5,198.5h12.989c4.478,0,16.372,0.202,16.372-12.315
		c0-5.879-2.524-12.685-14.547-12.685H175.5V198.5z M175.5,170.5h13.445c9.157,0,11.08-6.464,11.08-11.5
		c0-11.039-8.851-11.5-12.631-11.5H175.5V170.5z"/>
	<path fill="#980F0F" d="M219.599,173.161c0-20.426,13.321-33.642,31.66-33.642c6.569,0,13.412,1.571,17.974,3.789l-1.186,10.259
		c-5.201-1.941-10.219-3.789-16.788-3.789c-13.138,0-19.89,9.982-19.89,23.383c0,13.402,6.752,23.383,19.89,23.383
		c6.569,0,11.587-1.756,16.788-3.789l1.186,10.259c-4.653,2.311-11.405,3.789-17.974,3.789
		C232.92,206.803,219.599,193.587,219.599,173.161z"/>
	<path fill="#980F0F" d="M251.259,204.175c-17.385,0-29.066-12.464-29.066-31.014s11.681-31.014,29.066-31.014
		c5.212,0,10.844,1.05,15.174,2.789l-0.582,5.03c-4.288-1.519-8.886-2.817-14.592-2.817c-13.659,0-22.484,10.21-22.484,26.011
		s8.826,26.012,22.484,26.012c5.641,0,10.229-1.218,14.596-2.786l0.579,5.011C262.179,203.13,256.548,204.175,251.259,204.175z"/>
	<path fill="#980F0F" d="M321.967,205.509V176.95h-31.934v28.559h-10.766v-64.697h10.766v25.694h31.934v-25.694h10.766v64.697
		H321.967z"/>
	<polygon fill="#980F0F" points="324,203 324,174 287,174 287,203 282,203 282,143 287,143 287,169 324,169 324,143 331,143 
		331,203 	"/>
	<path fill="#980F0F" d="M346.963,205.509v-64.697h40.236v10.352h-29.288v15.435h22.901v10.351h-22.901v18.208h30.201v10.351
		H346.963z"/>
	<polygon fill="#980F0F" points="350,203 350,143 384,143 384,149 356,149 356,169 379,169 379,174 356,174 356,198 385,198 
		385,203 	"/>
	<path fill="#980F0F" d="M409.185,151.164v15.435h21.988v10.351h-21.988v28.559H398.42v-64.697h39.233v10.352H409.185z"/>
	<polygon fill="#980F0F" points="402,203 402,143 435,143 435,149 407,149 407,169 429,169 429,174 407,174 407,203 	"/>
</g>
<g>
	<path fill="#260808" d="M455.333,120.5c0-4.585-3.773-8.5-8.428-8.5h-15.646c-38.552-20-98.803-34.066-168.169-37.356
		c-4.075-15.073-18.023-26.3-34.61-26.3c-16.691,0-30.715,11.425-34.691,26.642C126.735,78.73,68.636,92,31.103,112H15.675
		c-4.655,0-8.428,3.915-8.428,8.5s3.773,8.5,8.428,8.5h431.23C451.56,129,455.333,125.085,455.333,120.5z M228.481,62.059
		c8.484,0,15.845,4.807,19.436,11.799c-5.531-0.136-11.111-0.208-16.736-0.208c-7.49,0-14.899,0.124-22.218,0.364
		C212.524,66.938,219.934,62.059,228.481,62.059z"/>
</g>
<g>
	<path fill="#F2F2F2" d="M96.01,94.868c-32.06,5.174-39.011,12.294-38.183,17.076c0.124,0.715,0.642,1.339,1.502,1.872
		c4.072-5.268,16.596-10.12,23.695-12.517c14.46-4.882,45.01-8.919,42.766-9.062C124.352,92.146,104.544,93.491,96.01,94.868z"/>
</g>
<g>
	<path fill="#980F0F" d="M433.287,5.392c-2.545,14.607-8.954,28.928-19.981,39.239c-5.655,5.156-42.789,22.627-37.134,33.224l0,0
		c-8.2-8.306-9.048-21.195-1.414-29.787C390.592,30.883,430.459,34.606,433.287,5.392"/>
	<g>
		<path fill="#980F0F" d="M432.875,5.278c-2.418,13.152-7.607,25.494-16.485,35.603c-4.675,5.324-11.026,8.469-16.994,12.113
			c-6.56,4.004-13.176,8.161-18.807,13.432c-1.861,1.742-3.879,3.903-4.814,6.325c-0.383,0.993-0.595,1.911-0.611,2.973
			c-0.024,1.668,1.271,1.79,0.281,0.721c-9.737-10.503-5.575-25.479,5.341-32.859c7.136-4.825,15.722-7.313,23.742-10.234
			c13.789-5.023,27.33-11.866,29.185-27.96c0.063-0.546-0.791-0.54-0.854,0c-2.431,21.091-25.161,25.378-41.579,31.956
			c-7.091,2.841-14.148,6.501-18.691,12.838c-6.265,8.741-3.586,20.564,3.28,27.972c0.351,0.378,0.864-0.101,0.67-0.517
			c-2.838-6.113,6.685-12.61,10.67-15.587c6.118-4.572,12.766-8.407,19.287-12.363c15.675-9.508,23.956-26.531,27.201-44.185
			C433.797,4.967,432.975,4.737,432.875,5.278L432.875,5.278z"/>
	</g>
</g>
</svg>
