<svg viewBox="0 0 300 98" width="300" height="98" xmlns="http://www.w3.org/2000/svg"><style>.a{fill:#980f0f;}</style><path d="M262.3 7.1c-0.5 3.1-1.9 6.1-4.3 8.3 -1.2 1.1-9.2 4.8-8 7l0 0c-1.8-1.8-1.9-4.5-0.3-6.3C253.2 12.5 261.7 13.2 262.3 7.1" class="a"/><path d="M262.2 7c-1 4.9-3.4 7.8-7.5 10.3 -1.2 0.8-4.9 2.6-4.9 4.4 0 0.1 0 0.2 0 0.4 -1.3-1.6-1.5-3.3-0.6-5.2 0.5-1.1 1.9-1.8 2.9-2.4 1.7-0.9 3.7-1.4 5.5-2.1 2.5-1 4.3-2.6 4.7-5.3C262.4 7 262.3 6.9 262.2 7c-0.8 5.2-6.7 5.6-10.6 7.6 -3.2 1.7-3.9 5.1-1.6 7.9 0.1 0.1 0.2 0 0.2-0.1 -0.9-2.6 5.7-5.5 7.4-6.6 2.8-1.8 4.2-5.6 4.8-8.7C262.4 7 262.3 6.9 262.2 7L262.2 7Z" class="a"/><path d="M75.1 39.4c0.4 0.1 0.6 0.4 0.4 0.7L65.2 68.6c-0.1 0.3-0.3 0.4-0.7 0.4 -0.3 0-0.5-0.1-0.6-0.4l-9.7-26.7 -9.7 26.7c-0.1 0.3-0.3 0.4-0.7 0.4s-0.5-0.1-0.7-0.4L32.9 40.1c-0.1-0.4 0-0.6 0.4-0.7 0.4-0.1 0.7 0 0.9 0.4l9.7 26.7 9.7-26.7c0.1-0.3 0.3-0.4 0.6-0.4s0.5 0.1 0.7 0.4l9.7 26.7 9.7-26.7C74.4 39.4 74.7 39.3 75.1 39.4Z"/><path d="M104.1 54c0 0.1 0 0.3 0 0.4 0 0.2-0.1 0.3-0.2 0.4 0 0-0.1 0.1-0.2 0.1 -0.1 0-0.1 0 0 0 -0.1 0-0.1 0-0.2 0.1 -0.1 0-0.1 0 0 0H75.1c0.3 3.7 1.7 6.8 4.4 9.3 2.7 2.5 5.8 3.8 9.4 3.8 4.2 0 7.6-1.6 10.4-4.8 0.3-0.3 0.6-0.3 1-0.1 0.4 0.2 0.4 0.5 0.1 0.8 -3 3.5-6.8 5.3-11.5 5.3 -4.2 0-7.8-1.5-10.7-4.5 -3-3-4.5-6.6-4.5-10.8 0-4.2 1.5-7.8 4.5-10.8 3-3 6.5-4.5 10.7-4.5 4.2 0 7.8 1.5 10.7 4.5C102.6 46.2 104.1 49.8 104.1 54ZM88.9 39.9c-3.8 0-7 1.4-9.7 4.1 -2.7 2.7-4.1 6-4.1 9.9h27.7c0-3.9-1.4-7.2-4.1-9.9C96 41.2 92.7 39.9 88.9 39.9Z"/><path d="M122.3 39c4.2 0 7.7 1.5 10.7 4.5 3 3 4.4 6.6 4.4 10.8 0 4.2-1.5 7.8-4.4 10.8 -3 3-6.5 4.5-10.7 4.5 -3 0-5.8-0.8-8.3-2.5 -2.4-1.6-4.3-3.8-5.5-6.5V69c0 0.4-0.2 0.6-0.7 0.6 -0.5 0-0.7-0.2-0.7-0.6V27.9c0-0.4 0.2-0.6 0.7-0.6 0.4 0 0.7 0.2 0.7 0.6V48c1.2-2.7 3.1-4.9 5.5-6.5C116.5 39.8 119.3 39 122.3 39ZM122.3 68.3c3.8 0 7.1-1.4 9.7-4.1 2.7-2.8 4-6.1 4-10 0-3.9-1.3-7.2-4-9.9 -2.7-2.8-5.9-4.1-9.7-4.1 -3.8 0-7 1.4-9.7 4.1 -2.7 2.8-4 6.1-4 9.9 0 3.9 1.3 7.2 4 10C115.2 67 118.5 68.3 122.3 68.3Z"/><path d="M155.5 70c-4.2 0-7.8-1.5-10.7-4.4 -3-3-4.4-6.5-4.4-10.7 0-4.1 1.5-7.7 4.5-10.7 3-3 6.5-4.5 10.7-4.5 4.2 0 8.1 1.8 11.6 5.3 -0.8 1.3-2.4 3-4.6 5.2 -2.1-2.6-4.4-3.8-7-3.8 -2.3 0-4.3 0.8-5.9 2.5 -1.7 1.7-2.5 3.6-2.5 5.9 0 2.3 0.8 4.2 2.5 5.9 1.7 1.7 3.6 2.5 5.9 2.5 2.7 0 5-1.3 7-3.8l4.8 4.8C163.6 68.1 159.6 70 155.5 70Z" class="a"/><path d="M199 70V53.9c0-1-0.5-2.3-1.5-3.7 -1-1.4-2-2.4-3-2.8 -1.4-0.6-2.7-1-3.9-1 -0.7 0-2.1 0.3-4 1 -0.9 0.3-1.9 1.2-2.9 2.7 -1 1.5-1.5 2.7-1.5 3.7V70h-6.9v-54h6.9v26.2c2.6-1.7 5.4-2.6 8.3-2.6 5.5 0 9.7 2.2 12.6 6.7 1.7 2.7 2.6 5 2.6 7.1V70H199Z" class="a"/><path d="M222.1 58.2c0.8 1.2 2.1 2.6 3.7 4.1 1.4 0.7 2.7 1 3.8 1 2.7 0 5-1.3 7-3.8l4.8 4.8c-3.7 3.8-7.7 5.8-11.8 5.8 -4.2 0-7.8-1.5-10.7-4.4 -3-3-4.4-6.5-4.4-10.7 0-4.1 1.5-7.7 4.5-10.7 3-3 6.5-4.5 10.7-4.5 5.5 0 9.7 2.2 12.6 6.7 1.7 2.7 2.6 5 2.6 7.1v4.7H222.1ZM229.7 46.5c-1.6 0-3.1 0.5-4.4 1.4 -1.4 0.9-2.4 2.1-3.1 3.6h15.2c-0.7-1.5-1.7-2.7-3.1-3.6C232.7 46.9 231.3 46.5 229.7 46.5Z" class="a"/><path d="M278.2 47.6l-2.7 2.7c-2.1-2.6-4.4-3.8-7-3.8 -1.9 0-3.7 0.8-5.6 2.3 -1.9 1.6-2.8 3.3-2.8 5.1v9.4h10.3V70h-10.3v23.7h-6.7V53.6c0-0.7 0.3-1.9 0.8-3.5 1-3 2.8-5.5 5.5-7.4 2.7-1.9 5.6-2.9 8.8-2.9 4.2 0 8.1 1.8 11.6 5.3C279.4 46.3 278.7 47.1 278.2 47.6Z" class="a"/><path d="M279 32.5c0-0.7-0.8-1.5-1.7-1.5h-3.1c-7.7-2-19.7-5.7-33.6-6.1 -0.8-2.2-3.6-4.2-6.9-4.2 -3.3 0-6.1 2.2-6.9 4.4 -13.4 0.5-25 3.9-32.5 5.9h-3.1c-0.9 0-1.7 0.8-1.7 1.5s0.8 1.5 1.7 1.5h86.1C278.2 34 279 33.2 279 32.5ZM233.7 22.3c1.7 0 3.2 0.7 3.9 1.7 -1.1 0-2.2 0-3.3 0 -1.5 0-3 0-4.4 0.1C230.5 23 232 22.3 233.7 22.3Z" style="fill:none;stroke:#980f0f"/></svg>