<?xml version="1.0" encoding="utf-8"?>
<!-- Generator: Adobe Illustrator 17.0.0, SVG Export Plug-In . SVG Version: 6.00 Build 0)  -->
<!DOCTYPE svg PUBLIC "-//W3C//DTD SVG 1.1//EN" "http://www.w3.org/Graphics/SVG/1.1/DTD/svg11.dtd">
<svg version="1.1" id="Layer_1" xmlns="http://www.w3.org/2000/svg" xmlns:xlink="http://www.w3.org/1999/xlink" x="0px" y="0px"
	 width="700px" height="272px" viewBox="0 0 700 272" enable-background="new 0 0 700 272" xml:space="preserve">
<g>
	<path fill="#980F0F" d="M626.139,36.212c-1.322,7.493-4.653,14.84-10.383,20.129c-2.939,2.645-22.235,11.607-19.296,17.043l0,0
		c-4.261-4.261-4.702-10.873-0.735-15.28C603.953,49.289,624.669,51.199,626.139,36.212"/>
	<g>
		<path fill="#980F0F" d="M625.926,36.154c-1.391,7.142-4.241,13.572-9.212,18.947c-2.475,2.676-6.168,4.3-9.241,6.172
			c-3.447,2.1-12.284,6.491-11.438,11.651c-0.398-0.652-0.797-1.304-1.195-1.955c-0.961-1.591-1.499-3.314-1.613-5.169
			c-0.323-2.771,1.002-5.439,2.654-7.539c1.348-1.715,3.511-2.844,5.409-3.836c4.022-2.1,8.511-3.286,12.725-4.933
			c6.308-2.466,11.397-6.224,12.344-13.279c0.038-0.281-0.404-0.277-0.441,0c-1.586,11.809-14.964,13.368-23.939,17.392
			c-8.351,3.745-12.353,12.403-5.676,19.936c0.141,0.159,0.452-0.008,0.368-0.214c-2.371-5.826,12.917-12.782,16.767-15.13
			c7.499-4.574,11.3-13.648,12.912-21.926C626.405,35.993,625.98,35.875,625.926,36.154L625.926,36.154z"/>
	</g>
</g>
<g>
	<path d="M136.997,116.623c1.1,0.283,1.457,0.896,1.073,1.837l-25.994,71.707c-0.22,0.66-0.771,0.989-1.65,0.989
		c-0.825,0-1.349-0.329-1.568-0.989l-24.425-67.256l-24.343,67.256c-0.276,0.66-0.825,0.989-1.65,0.989s-1.376-0.329-1.65-0.989
		L30.794,118.46c-0.33-0.941,0.027-1.554,1.073-1.837c1.1-0.283,1.815,0.047,2.146,0.989l24.426,67.185l24.426-67.185
		c0.219-0.707,0.743-1.06,1.568-1.06s1.374,0.354,1.65,1.06l24.343,67.185l24.426-67.185
		C135.181,116.67,135.896,116.34,136.997,116.623z"/>
	<path d="M224.467,153.5c0,0.33,0,0.684,0,1.06c0,0.424-0.165,0.777-0.495,1.06c-0.111,0.095-0.248,0.189-0.413,0.283
		c-0.165,0.047-0.193,0.047-0.083,0c-0.165,0.047-0.358,0.095-0.578,0.141c-0.22,0-0.248,0-0.083,0H151.52
		c0.66,9.279,4.318,17.097,10.975,23.455c6.711,6.406,14.633,9.608,23.766,9.608c10.507,0,19.227-4.05,26.158-12.151
		c0.66-0.753,1.457-0.848,2.393-0.283c0.935,0.565,1.044,1.249,0.33,2.049c-7.591,8.855-17.219,13.282-28.881,13.282
		c-10.563,0-19.557-3.768-26.984-11.304c-7.482-7.535-11.223-16.602-11.223-27.199c0-10.643,3.74-19.733,11.223-27.27
		c7.427-7.488,16.421-11.233,26.984-11.233s19.557,3.745,26.983,11.233c7.481,7.536,11.223,11.304,11.223,11.304
		S224.467,142.857,224.467,153.5z M186.261,117.895c-9.518,0-17.688,3.439-24.508,10.314c-6.767,6.877-10.206,15.189-10.315,24.938
		h69.646c-0.111-9.749-3.548-18.061-10.315-24.938C203.947,121.333,195.777,117.895,186.261,117.895z"/>
	<path d="M282.478,115.069c10.507,0,19.475,3.769,26.901,11.304c7.427,7.488,11.14,16.508,11.14,27.058
		c0,10.597-3.713,19.64-11.14,27.128c-7.426,7.488-16.394,11.232-26.901,11.232c-7.592,0-14.523-2.095-20.795-6.287
		c-6.162-4.098-10.783-9.513-13.863-16.249v21.194c0,0.942-0.551,1.413-1.65,1.413c-1.155,0-1.733-0.471-1.733-1.413V87.164
		c0-0.942,0.578-1.413,1.733-1.413c1.1,0,1.65,0.471,1.65,1.413v50.512c3.08-6.782,7.701-12.222,13.863-16.319
		C267.955,117.165,274.886,115.069,282.478,115.069z M282.478,188.895c9.572,0,17.742-3.461,24.508-10.385
		c6.767-6.923,10.15-15.283,10.15-25.08c0-9.75-3.383-18.085-10.15-25.009c-6.766-6.923-14.936-10.385-24.508-10.385
		c-9.518,0-17.688,3.461-24.508,10.385c-6.767,6.924-10.15,15.26-10.15,25.009c0,9.796,3.383,18.156,10.15,25.08
		C264.791,185.433,272.96,188.895,282.478,188.895z"/>
</g>
<g>
	<path fill="#980F0F" d="M367.128,188.847c-10.153,0-18.812-3.583-25.979-10.75c-7.167-7.167-10.75-15.825-10.75-25.979
		c0-10.033,3.611-18.661,10.839-25.89c7.226-7.225,15.856-10.839,25.889-10.839c10.271,0,19.646,4.3,28.129,12.9
		c-2.032,3.107-5.733,7.346-11.108,12.721c-5.017-6.209-10.691-9.316-17.021-9.316c-5.616,0-10.422,2.001-14.423,6.002
		c-4.003,4.003-6.002,8.81-6.002,14.423c0,5.495,2.03,10.274,6.092,14.333c4.059,4.062,8.838,6.091,14.333,6.091
		c6.45,0,12.122-3.104,17.021-9.316l11.646,11.646C386.716,184.189,377.162,188.847,367.128,188.847z"/>
	<path fill="#980F0F" d="M472.655,188.847V149.79c0-2.508-1.245-5.493-3.731-8.958c-2.486-3.463-4.913-5.733-7.278-6.808
		c-3.436-1.551-6.573-2.329-9.415-2.329c-1.774,0-4.972,0.837-9.591,2.508c-2.251,0.837-4.588,3.018-7.015,6.54
		c-2.427,3.524-3.639,6.48-3.639,8.869v39.237h-16.662V58.057h16.662v63.604c6.329-4.18,13.018-6.271,20.066-6.271
		c13.258,0,23.471,5.437,30.637,16.304c4.18,6.45,6.271,12.183,6.271,17.2v39.954H472.655z"/>
	<path fill="#980F0F" d="M528.732,160.181c2.03,2.912,5.017,6.243,8.958,10c3.343,1.576,6.45,2.362,9.317,2.362
		c6.449,0,12.121-3.104,17.021-9.316l11.646,11.646c-9.079,9.316-18.633,13.975-28.666,13.975c-10.154,0-18.813-3.583-25.979-10.75
		c-7.166-7.167-10.75-15.825-10.75-25.979c0-10.033,3.611-18.661,10.84-25.89c7.226-7.225,15.856-10.839,25.89-10.839
		c13.258,0,23.47,5.437,30.637,16.304c4.18,6.45,6.271,12.183,6.271,17.2v11.287H528.732z M547.008,131.694
		c-3.824,0-7.408,1.136-10.75,3.404c-3.346,2.271-5.854,5.196-7.525,8.779h36.729c-1.674-3.583-4.21-6.509-7.614-8.779
		C554.442,132.83,550.829,131.694,547.008,131.694z"/>
	<path fill="#980F0F" d="M664.7,134.561l-6.476,6.45c-5.036-6.209-10.73-9.316-17.082-9.316c-4.558,0-9.081,1.89-13.577,5.669
		c-4.496,3.779-6.744,7.889-6.744,12.326v22.854h24.904v16.304h-24.904v57.333h-16.304v-97.107c0-1.792,0.655-4.658,1.971-8.6
		c2.388-7.284,6.836-13.286,13.348-18.006c6.509-4.717,13.645-7.077,21.41-7.077c10.271,0,19.646,4.3,28.129,12.9
		C667.455,131.276,665.898,133.368,664.7,134.561z"/>
</g>
<g>
	<path fill="none" stroke="#980F0F" stroke-width="2" stroke-miterlimit="10" d="M666.482,98.5c0-1.604-1.826-4.5-4.078-4.5h-7.571
		c-18.656-4-47.812-13.599-81.379-14.75c-1.972-5.272-8.721-10.041-16.748-10.041c-8.077,0-14.864,5.259-16.787,10.581
		C507.469,81.1,479.354,90,461.191,94h-7.466c-2.252,0-4.078,2.896-4.078,4.5s1.826,4.5,4.078,4.5h208.678
		C664.656,103,666.482,100.104,666.482,98.5z M556.705,73.164c4.105,0,7.668,1.681,9.405,4.127
		c-2.677-0.048-5.377-0.073-8.099-0.073c-3.624,0-7.21,0.043-10.751,0.127C548.984,74.87,552.569,73.164,556.705,73.164z"/>
</g>
</svg>
