<?xml version="1.0" encoding="utf-8"?>
<!-- Generator: Adobe Illustrator 17.0.0, SVG Export Plug-In . SVG Version: 6.00 Build 0)  -->
<!DOCTYPE svg PUBLIC "-//W3C//DTD SVG 1.1//EN" "http://www.w3.org/Graphics/SVG/1.1/DTD/svg11.dtd" [
	<!ENTITY ns_flows "http://ns.adobe.com/Flows/1.0/">
	<!ENTITY ns_extend "http://ns.adobe.com/Extensibility/1.0/">
	<!ENTITY ns_ai "http://ns.adobe.com/AdobeIllustrator/10.0/">
	<!ENTITY ns_graphs "http://ns.adobe.com/Graphs/1.0/">
]>
<svg version="1.1" id="Layer_1" xmlns:x="&ns_extend;" xmlns:i="&ns_ai;" xmlns:graph="&ns_graphs;"
	 xmlns="http://www.w3.org/2000/svg" xmlns:xlink="http://www.w3.org/1999/xlink" xmlns:a="http://ns.adobe.com/AdobeSVGViewerExtensions/3.0/"
	 x="0px" y="0px" width="219.6px" height="221.1px" viewBox="0 0 219.6 221.1" enable-background="new 0 0 219.6 221.1"
	 xml:space="preserve">
<g>
	<g>
		<path fill="#3960A3" d="M109.2,221.1C47.9,220.8-0.3,171.6,0,109.7C0.3,48.9,49.8-0.4,110.2,0C171.1,0.4,220,50,219.6,110.6
			C219.1,172.5,170.4,221.3,109.2,221.1z"/>
		<g>
			<path fill="#FFFFFF" d="M44.4,50.4c0.2-0.6,0.7-0.9,1.3-1.1c0.1,0,0.2,0,0.3-0.1c0.6-0.1,1.2,0,1.9,0c42.2,0,84.5,0,126.7,0
				c0.6,0,1.3,0,1.9,0c0.1,0,0.2,0,0.3,0.1c0.6,0.2,1.1,0.5,1.3,1.1c0.2,0.9,0.2,1.8,0.2,2.7c0,31.1,0,62.2,0,93.4
				c0,7.6,0,15.1,0,22.7c0,1.2-0.2,2.2-0.9,3.1c-0.2,0.1-0.4,0.2-0.6,0.3c-0.1,0-0.2,0-0.3,0c-0.6,0.1-1.2,0-1.7,0
				c-42.3,0-84.6,0-127,0c-0.6,0-1.2,0-1.7,0c-0.1,0-0.2,0-0.3,0c-0.2-0.1-0.4-0.2-0.6-0.3c-0.7-0.9-0.9-1.9-0.9-3.1
				c0-7.6,0-15.1,0-22.7c0-31.1,0-62.2,0-93.4C44.3,52.1,44.2,51.2,44.4,50.4z"/>
			<path fill="#3960A3" d="M60.7,64.8c0.6-0.4,0.6-1,0.6-1.6c0-3.3,0-6.5,0-9.8c0.2-0.1,0.3-0.1,0.4,0.1c0.1,0.1,0.1,0.3,0,0.4
				c0,2.8,0,5.6,0,8.4c0,0.2-0.3,0-0.1,0c0.1,0,0.1,0,0.1-0.1c0-2.4,0-4.8,0-7.2c0-0.5-0.2-1,0.2-1.4c0.5-0.3,1.1-0.2,1.7-0.2
				c36.1,0,72.2,0,108.4,0c0.6,0,1.3-0.1,1.8,0.3c0.4,0.5,0.3,1,0.3,1.5c0,27.4,0,54.8,0,82.1c0,0.5,0.1,1.1-0.3,1.5
				c-0.2,0.2-0.5,0.2-0.8,0.2c-40.6-0.1-81.2,0-121.9-0.1c-0.9,0-1.8,0.2-2.7-0.1c-0.4-0.4-0.3-1-0.3-1.5c0-23.6,0-47.2,0-70.8
				c0-0.5-0.1-1,0.2-1.4c0.4-0.4,0.9-0.2,1.4-0.2c3.2,0,6.3,0,9.5,0C59.8,65,60.3,65.1,60.7,64.8z"/>
			<path fill="#3960A3" d="M59.4,52c0.1,3.6,0.1,7.3,0,10.9c-2.1,0.3-4.2,0.1-6.2,0.1c-2,0-4.1,0.2-6.1-0.1l0,0
				c-0.3-1.1-0.2-2.3-0.1-3.4c0-2.4-0.2-4.9,0.1-7.3c0.1-0.1,0.2-0.2,0.3-0.2c0.5-0.3,1-0.2,1.6-0.2c3.1,0,6.1,0,9.2,0
				C58.6,51.8,59,51.6,59.4,52z"/>
			<path fill="#3960A3" d="M174.3,143.2c0,0.4,0,0.9,0,1.3c-0.1,0.1-0.3,0.2-0.5,0.2c-41.7,0-83.4,0-125.1,0c-0.2,0-0.3,0-0.5-0.2
				c0-0.4,0-0.9,0-1.3c0.1-0.1,0.3-0.2,0.4-0.2c41.7,0,83.5,0,125.2,0C174,143.1,174.1,143.1,174.3,143.2z"/>
			<path fill="#FFFFFF" d="M68,121.7c-1.5-1.3-1.6-2.2-0.3-3.6c8.7-9.4,17.3-18.8,26-28.2c0.3-0.4,0.6-0.8,1.1-0.9
				c0.4,0.1,0.9,0.1,1.3,0c0.7,0.1,1.1,0.7,1.5,1.2c6.3,6.8,12.6,13.6,18.8,20.4c0.7,0.8,1.1,0.8,1.8,0c4.2-4.6,8.5-9.2,12.7-13.8
				c1.5-1.6,2.5-1.6,4,0c6.5,7.1,13,14.1,19.6,21.2c1.4,1.5,1.3,2.4-0.2,3.7c-0.2,0.1-0.3,0.1-0.5,0.1c-28.5,0-56.9,0-85.4,0
				C68.3,121.9,68.2,121.8,68,121.7z"/>
			<path fill="#FFFFFF" d="M96.2,89c-0.4,0.3-0.9,0.3-1.3,0C95.3,88.9,95.7,88.9,96.2,89z"/>
			<path fill="#3960A3" d="M48.4,168.7c-0.3-0.3-0.3-0.7-0.3-1c0-6.3,0-12.7,0-19c42,0,84,0,126,0c0,6.3,0,12.7,0,19
				c0,0.4,0,0.7-0.3,1c-0.5,0-1.1,0-1.6,0c-40.8,0-81.6,0-122.4,0C49.5,168.6,49,168.7,48.4,168.7z"/>
			<path fill="#3960A3" d="M73.9,117.4c4.9-5.4,9.8-10.7,14.8-16.1c2.1-2.2,4.1-4.4,6.2-6.7c0.6-0.6,0.9-0.8,1.5-0.1
				c5.9,6.4,11.8,12.8,17.7,19.2c0.5,0.6,0.6,1,0,1.5c-0.8,0.8-1.5,1.6-2.3,2.4c-0.1,0-0.2,0-0.3,0.1c-0.4,0.1-0.9,0.1-1.3,0.1
				c-11.5,0-22.9,0-34.4,0C75.1,117.8,74.4,118.1,73.9,117.4z"/>
			<path fill="#3960A3" d="M117.9,117.1c3.6-3.9,7.1-7.8,10.7-11.7c1.3-1.4,2.6-2.8,3.9-4.2c0.4-0.4,0.6-0.7,1.1-0.1
				c4.6,5,9.1,9.9,13.7,14.9c0.2,0.2,0.3,0.4,0.4,0.7c0.4,0.6,0.4,1.1-0.5,1.2c-0.3,0-0.6,0-0.9,0c-8.9,0-17.8,0-26.7,0
				C119,117.8,118.1,118.2,117.9,117.1z"/>
			<path fill="#FEFCFE" d="M117.9,117.1c0.4,0.4,0.9,0.4,1.4,0.4c9.1,0,18.2,0,27.3,0c0.5,0,1.3,0.2,1.1-0.8
				c0.5,0.2,0.8,0.6,1.1,1.1c-0.4,0.4-0.9,0.3-1.4,0.3c-9.5,0-19,0-28.5,0c-0.5,0-1.2,0.4-1.4-0.5
				C117.6,117.3,117.7,117.2,117.9,117.1z"/>
			<path fill="#3960A3" d="M154.1,79c-0.1,0.3-0.2,0.7-0.3,1c-0.9,3.7-4.2,5.9-8.1,5.5c-3.4-0.4-6.1-3.6-6.1-7.1
				c0-3.6,2.7-6.7,6.2-7.1c3.7-0.4,7.1,1.9,8,5.5c0.1,0.3,0.2,0.7,0.3,1C154.4,78.2,154.4,78.6,154.1,79z"/>
		</g>
	</g>
	<circle fill="#FFFFFF" cx="144.9" cy="71.9" r="11.3"/>
	<ellipse fill="#3960A3" cx="144.9" cy="71.9" rx="8.1" ry="7.8"/>
</g>
</svg>
